<svg width="157" height="133" viewBox="0 0 157 133" fill="none" xmlns="http://www.w3.org/2000/svg">
<path d="M69.7524 74.0279C69.0463 73.9425 68.3338 73.8955 67.6363 73.7609C65.9225 73.432 64.9254 72.3683 64.5831 70.4866C64.3349 69.1239 64.2322 67.7313 63.9284 66.3835C62.9164 61.8939 57.3085 59.35 53.2475 61.5393C52.1863 62.1117 51.2106 62.8422 50.205 63.5129C47.9435 65.0208 46.5335 64.9717 44.3853 63.2843C44.1628 63.1092 43.9489 62.917 43.7456 62.7205C40.9363 60.0036 40.7908 58.4722 43.0738 55.3217C44.3169 53.6045 45.4765 51.8701 45.3974 49.6124C45.2433 45.2723 42.4126 42.3846 37.8981 41.9659C36.9781 41.8805 36.0602 41.7481 35.1551 41.5772C33.6852 41.2995 32.7652 40.317 32.5919 38.918C32.4143 37.4912 32.4293 36.0046 32.624 34.58C32.8722 32.7687 34.1944 31.8866 35.9254 31.5684C37.0808 31.3569 38.2511 31.2117 39.3851 30.9191C43.782 29.7913 46.3709 24.2166 44.3575 20.1498C43.7135 18.8491 42.8534 17.6551 42.0917 16.412C41.1032 14.8015 41.1674 13.1975 42.327 11.7451C43.0738 10.8117 43.951 9.94665 44.8967 9.21404C46.3345 8.0991 47.8857 8.20589 49.3535 9.23753C50.3441 9.93383 51.3112 10.6622 52.2633 11.4097C56.3991 14.6627 63.0469 11.4161 63.7765 6.92862C63.9369 5.94824 64.1209 4.97 64.3092 3.9939C64.8612 1.12966 65.8818 0.187723 68.8216 0.0168511C69.8058 -0.0408182 70.8221 0.0531614 71.7914 0.243257C73.5416 0.587136 74.4231 1.81955 74.7397 3.5005C74.9109 4.40826 75.0671 5.31815 75.204 6.23232C75.9743 11.3734 82.7076 13.755 86.4112 11.5358C87.511 10.8779 88.5979 10.2008 89.6762 9.50879C91.4628 8.36181 93.1681 8.50492 94.8177 9.78219C95.1557 10.0428 95.4895 10.3119 95.7998 10.6024C98.5598 13.174 98.7182 14.7866 96.5144 17.7918C96.2619 18.1357 96.018 18.486 95.7591 18.8277C93.1959 22.2153 93.6923 25.6946 96.1207 28.9412C97.3124 30.5346 99.1054 31.0408 100.978 31.3206C101.54 31.4039 102.107 31.468 102.668 31.5598C104.921 31.9229 105.952 32.9375 106.183 35.1695C106.282 36.1178 106.282 37.0982 106.166 38.0444C105.869 40.4943 104.97 41.4576 102.576 42.062C101.542 42.3226 100.505 42.5811 99.4627 42.8032C95.4403 43.6661 92.0704 50.3579 95.4638 54.5336C96.1999 55.4392 96.8524 56.4217 97.4686 57.4149C98.3245 58.7947 98.0142 60.1339 97.1434 61.3919C96.8802 61.77 96.5679 62.1181 96.2512 62.4535C93.5382 65.3263 91.7752 65.527 88.5123 63.2908C86.76 62.0904 84.9927 60.937 82.744 61.0951C79.0189 61.3578 75.4351 63.5342 75.0008 68.4447C74.9644 68.8676 74.8681 69.2862 74.8296 69.7113C74.5643 72.6076 73.4752 73.9681 69.7524 74.0279ZM86.6509 36.6539C86.668 27.1855 79.1088 19.6031 69.6561 19.6052C60.443 19.6073 52.7597 27.1834 52.7233 36.2994C52.687 45.8768 60.1884 53.5361 69.6218 53.5489C79.0425 53.5639 86.6359 46.0305 86.6509 36.6539Z" fill="white"/>
<path d="M95.3271 65.8153C96.5168 64.4696 97.8091 63.2415 98.8147 61.8104C100.227 59.8048 99.9508 57.7181 98.5387 55.7658C97.9139 54.9008 97.2014 54.0913 96.6537 53.1793C96.2129 52.4467 95.9647 51.6008 95.5133 50.5265C100.954 51.0071 105.242 49.4094 108.353 45.2209C110.351 42.5318 111.109 39.4561 110.758 36.1519C110.069 29.6758 104.271 23.7594 95.9562 24.6073C95.5454 23.2382 95.815 21.9631 96.5296 20.7713C96.9875 20.0109 97.5202 19.2932 98.0466 18.5777C100.396 15.376 100.342 13.3148 97.8176 10.237C97.685 10.0747 97.5523 9.9102 97.4133 9.7372C99.1335 9.09002 101.006 9.96574 101.483 11.6659C101.703 12.4498 101.789 13.2678 101.938 14.0709C102.653 17.9284 106.984 20.1113 110.516 18.3641C111.374 17.9391 112.155 17.3645 112.977 16.869C114.603 15.8907 115.707 15.9292 117.198 17.0911C117.729 17.5033 118.21 17.9946 118.642 18.5093C119.77 19.855 119.828 20.9208 118.878 22.3967C118.379 23.1741 117.846 23.9303 117.307 24.6821C115.305 27.463 117.132 33.1851 121.599 33.5098C121.882 33.5311 122.16 33.6187 122.442 33.6486C123.756 33.7874 125.074 33.9946 125.545 35.4684C126.116 37.2561 126.163 39.0823 125.025 40.6714C124.652 41.1905 123.886 41.4938 123.24 41.7308C122.412 42.0341 121.505 42.1174 120.66 42.3844C116.875 43.5763 115.309 48.1663 117.568 51.4086C118.056 52.1092 118.595 52.7734 119.068 53.4847C119.68 54.401 119.759 55.4262 119.07 56.2721C118.296 57.2204 117.41 58.1175 116.432 58.8501C115.465 59.5763 114.331 59.4033 113.308 58.7988C112.512 58.3289 111.723 57.8398 110.965 57.3101C107.865 55.1336 102.152 57.2289 101.896 61.7827C101.855 62.5217 101.675 63.2564 101.534 63.9869C101.301 65.1937 100.576 65.9178 99.3646 66.1976C98.023 66.5009 96.3156 66.3471 95.3271 65.8153Z" fill="white"/>
<path d="M110.936 121.502C110.936 113.429 110.936 105.468 110.936 97.4565C111.144 97.4377 111.319 97.4093 111.495 97.4093C115.302 97.4109 119.109 97.3905 122.916 97.4377C123.904 97.4502 124.923 97.5588 125.868 97.8279C130.019 99.0097 131.632 102.066 130.61 106.326C130.183 108.112 129.002 109.35 127.531 110.349C127.101 110.642 126.641 110.891 126.105 111.212C128.763 114.623 131.395 118.004 134.111 121.491C133.752 121.517 133.526 121.547 133.301 121.547C131.305 121.55 129.31 121.535 127.315 121.558C126.822 121.565 126.505 121.421 126.204 121.011C124.316 118.432 122.381 115.885 120.499 113.301C120.13 112.795 119.741 112.587 119.128 112.633C118.478 112.681 117.823 112.644 117.047 112.644C117.047 115.623 117.047 118.54 117.047 121.503C114.943 121.502 112.961 121.502 110.936 121.502ZM117.038 101.907C117.038 103.904 117.03 105.915 117.052 107.928C117.053 108.079 117.261 108.359 117.373 108.359C119.2 108.357 121.072 108.609 122.801 107.813C124.161 107.186 124.718 105.803 124.442 104.075C124.253 102.892 123.356 102.034 121.885 101.932C120.323 101.822 118.746 101.907 117.038 101.907Z" fill="white"/>
<path d="M88.1274 97.4392C93.9789 97.4392 99.7247 97.4392 105.527 97.4392C105.527 98.9326 105.527 100.388 105.527 101.929C105.198 101.946 104.895 101.978 104.592 101.978C101.44 101.981 98.2886 101.996 95.1359 101.968C94.4707 101.962 94.2011 102.116 94.2437 102.84C94.3099 103.934 94.2611 105.034 94.2611 106.219C97.7495 106.219 101.175 106.219 104.663 106.219C104.663 107.806 104.663 109.303 104.663 110.864C101.208 110.864 97.8016 110.864 94.3273 110.864C94.3273 112.895 94.3273 114.864 94.3273 116.918C98.0443 116.918 101.736 116.918 105.538 116.918C105.538 118.403 105.556 119.807 105.508 121.209C105.504 121.33 105.087 121.532 104.857 121.538C103.65 121.571 102.441 121.554 101.233 121.554C97.2136 121.554 93.1954 121.554 89.1757 121.555C88.8415 121.555 88.5073 121.555 88.1274 121.555C88.1274 113.46 88.1274 105.476 88.1274 97.4392Z" fill="white"/>
<path d="M143.202 121.494C141.131 121.494 139.148 121.494 137.106 121.494C137.106 113.489 137.106 105.509 137.106 97.4474C137.346 97.4333 137.598 97.4065 137.849 97.4065C141.211 97.4049 144.574 97.4002 147.934 97.4097C149.547 97.4144 151.125 97.6457 152.624 98.2689C156.024 99.6804 157.259 102.492 156.956 105.851C156.485 111.086 152.016 113.465 148.377 113.588C146.908 113.637 145.436 113.634 143.965 113.61C143.388 113.601 143.183 113.782 143.191 114.372C143.22 116.416 143.201 118.462 143.201 120.507C143.202 120.818 143.202 121.128 143.202 121.494ZM143.205 105.451C143.207 105.451 143.207 105.451 143.209 105.451C143.209 106.499 143.18 107.547 143.232 108.592C143.242 108.798 143.562 109.165 143.729 109.16C145.114 109.122 146.514 109.122 147.876 108.9C149.602 108.619 150.553 107.311 150.605 105.47C150.655 103.714 149.815 102.452 148.053 102.121C146.624 101.854 145.136 101.887 143.674 101.847C143.522 101.843 143.237 102.242 143.226 102.466C143.177 103.459 143.205 104.456 143.205 105.451Z" fill="white"/>
<path d="M0 83.4893V132.578H50.7446L98.177 83.4893H0ZM57.3669 113.995C56.2162 114.124 55.0392 114.055 53.8753 114.029C53.3743 114.018 53.2135 114.171 53.2212 114.669C53.2474 116.275 53.2168 117.882 53.2387 119.489C53.2452 119.977 53.091 120.15 52.5845 120.148C49.2351 120.131 45.8846 120.133 42.5351 120.147C42.1173 120.149 41.9182 120.009 41.799 119.616C41.5255 118.718 41.1995 117.835 40.9162 116.94C40.8112 116.606 40.6602 116.526 40.3244 116.655C37.3261 117.804 34.3235 117.805 31.3273 116.646C31.0123 116.525 30.8767 116.599 30.776 116.918C30.4883 117.83 30.1536 118.727 29.867 119.639C29.7511 120.009 29.5586 120.149 29.1637 120.146C27.1608 120.129 25.159 120.141 23.1561 120.136C22.5884 120.135 22.5644 120.087 22.7777 119.538C22.9931 118.984 23.2108 118.431 23.4318 117.868C23.2524 117.777 23.1813 117.919 23.0894 117.982C20.9115 119.446 18.4645 120.046 15.8753 120.128C13.4294 120.206 11.0032 120.032 8.62845 119.389C7.90649 119.194 7.21298 118.931 6.55119 118.581C6.26241 118.428 6.17161 118.24 6.27334 117.921C6.73933 116.46 7.19438 114.994 7.64287 113.527C7.74022 113.207 7.81789 113.101 8.19418 113.291C10.8949 114.646 13.7423 115.058 16.7231 114.484C17.1191 114.408 17.4921 114.269 17.8465 114.078C18.7632 113.587 18.9086 112.691 18.1954 111.926C17.8137 111.516 17.3149 111.291 16.8018 111.102C15.1796 110.502 13.4776 110.173 11.8193 109.697C9.02662 108.893 7.04671 107.25 6.35538 104.363C5.59624 101.191 7.11125 98.2197 10.1063 96.8081C11.4616 96.1696 12.8902 95.8682 14.3778 95.8302C17.2974 95.7565 20.1972 95.8942 23.0303 96.6867C24.4053 97.0716 24.4064 97.0716 23.9 98.3693C23.5127 99.3613 23.1036 100.346 22.7405 101.346C22.5873 101.769 22.3904 101.812 21.9693 101.698C19.554 101.04 17.1081 100.614 14.5879 100.931C14.0989 100.993 13.6263 101.113 13.1844 101.348C12.096 101.926 11.9385 103.33 12.9044 104.107C13.7981 104.825 14.893 105.139 15.9541 105.514C17.6857 106.125 19.5179 106.408 21.2244 107.097C22.7164 107.699 24.0301 108.538 24.972 109.877C25.3493 110.414 25.5769 111.018 25.8558 111.729C26.2988 110.617 26.7068 109.601 27.1094 108.582C28.7141 104.52 30.3232 100.46 31.9115 96.3907C32.0821 95.9527 32.302 95.789 32.7833 95.7955C34.749 95.8226 36.7157 95.8216 38.6814 95.7955C39.1562 95.789 39.3935 95.9419 39.5686 96.3799C41.3297 100.788 43.1094 105.189 44.8837 109.591C45.5586 111.265 46.2302 112.94 46.9051 114.614C46.938 114.695 46.985 114.769 47.0922 114.972C47.0922 114.617 47.0922 114.394 47.0922 114.173C47.0922 108.324 47.0922 102.475 47.0922 96.626C47.0922 95.8107 47.0933 95.8085 47.8853 95.8085C50.7435 95.8075 53.6018 95.8031 56.4601 95.8096C60.9975 95.8183 64.8676 99.2215 65.4386 103.698C66.0982 108.86 62.5551 113.413 57.3669 113.995Z" fill="white"/>
<path d="M56.3952 101.9C55.5223 101.886 54.6483 101.918 53.7765 101.889C53.3258 101.873 53.2154 102.063 53.2241 102.465C53.2427 103.295 53.2296 104.125 53.2307 104.955C53.2307 105.802 53.2383 106.65 53.2274 107.498C53.223 107.833 53.3324 107.988 53.6988 107.98C54.6078 107.962 55.5179 107.996 56.427 107.97C58.0459 107.922 59.4067 106.496 59.4034 104.885C59.399 103.32 58.0032 101.926 56.3952 101.9Z" fill="white"/>
<path d="M36.2887 103.95C36.1608 103.585 36.0776 103.199 35.8468 102.87C35.7932 102.909 35.7506 102.924 35.7418 102.95C34.7934 105.639 33.8516 108.33 32.8945 111.015C32.7698 111.365 32.866 111.552 33.1887 111.692C34.9487 112.453 36.7088 112.456 38.4743 111.71C38.8571 111.548 38.8954 111.325 38.7576 110.942C37.9197 108.617 37.1113 106.281 36.2887 103.95Z" fill="white"/>
</svg>
