<svg width="155" height="152" viewBox="0 0 155 152" fill="none" xmlns="http://www.w3.org/2000/svg">
<path d="M79.9047 135C105.362 135 126 132.209 126 128.767C126 125.324 105.362 122.534 79.9047 122.534C54.4471 122.534 33.8096 125.324 33.8096 128.767C33.8096 132.209 54.4471 135 79.9047 135Z" fill="white" fill-opacity="0.3"/>
<path d="M93.6829 0.999925C97.9401 0.978372 100.241 3.0173 101.127 7.22447C104.145 21.5487 107.163 35.8729 110.176 50.1971C114.149 69.0905 118.112 87.984 122.076 106.877C123.242 112.43 120.841 116.063 115.258 117.24C97.884 120.9 80.5141 124.564 63.1443 128.224C56.8017 129.56 52.864 126.991 51.5255 120.641C49.9582 113.197 48.5118 105.722 46.7545 98.3252C46.1673 95.8638 47.6094 96.0061 49.0385 95.6397C50.5886 95.2431 51.4521 94.7776 51.9184 97.2906C52.5186 100.528 53.2526 103.752 53.8527 106.998C54.0945 108.296 54.6169 108.593 55.8993 108.322C74.9573 104.287 94.024 100.282 113.099 96.3164C114.55 96.0147 114.464 95.3465 114.218 94.1956C108.894 69.0561 103.609 43.9036 98.3114 18.7597C97.3098 14.0051 97.2882 13.9792 92.4956 14.9836C74.694 18.708 56.9053 22.4884 39.0907 26.1309C37.2255 26.5145 37.0053 27.1783 37.3636 28.8164C39.1684 37.0885 40.8437 45.3907 42.6743 53.6542C43.0241 55.2233 43.2745 55.5035 41.12 56.025C40.6407 56.1414 40.1356 56.2406 39.652 56.3656C38.2747 56.7147 37.9379 56.2707 37.6875 55.0551C35.7013 45.4252 33.6591 35.8039 31.6341 26.1826C31.3664 24.9196 31.0901 23.6566 30.8267 22.3936C29.7732 17.3286 32.0141 13.8585 37.1175 12.7378C41.12 11.8584 45.1354 11.0437 49.1422 10.2031C63.2824 7.25033 77.4227 4.28462 91.563 1.33184C92.4006 1.15511 93.2598 1.06458 93.6829 0.999925ZM93.0137 110.766C93.0007 107.231 90.0648 104.291 86.5502 104.3C83.0961 104.308 80.0435 107.373 80.078 110.8C80.1126 114.331 83.0615 117.245 86.5804 117.232C90.1425 117.219 93.0267 114.318 93.0137 110.766ZM56.6764 17.2984C62.9586 15.975 69.271 14.6431 75.5791 13.3154C76.7276 13.074 77.7638 12.6257 77.4443 11.2247C77.0989 9.72463 75.9418 9.7936 74.6983 10.0652C70.5663 10.9661 66.4257 11.8196 62.2851 12.6903C60.2514 13.1171 58.2092 13.5137 56.1842 13.9878C55.1825 14.2206 54.4658 14.8284 54.7076 15.9793C54.9192 16.9708 55.6704 17.3286 56.6764 17.2984Z" fill="white"/>
<path d="M21.1501 112.02C20.9687 112.059 20.7788 112.08 20.5888 112.059C19.0949 111.908 18.2573 111.102 17.955 109.628C17.316 106.541 16.664 103.459 16.0509 100.369C15.6839 98.5063 16.4395 97.308 18.3134 96.8942C21.3962 96.2131 24.479 95.532 27.5747 94.9113C29.4443 94.5406 30.6748 95.3984 31.0893 97.2131C31.7887 100.287 32.3932 103.382 33.0106 106.472C33.3085 107.968 32.9631 109.335 31.3613 109.74C27.9849 110.602 24.5567 111.279 21.1501 112.02Z" fill="white"/>
<path d="M7.27371 64.7282C7.05351 64.7756 6.82036 64.7971 6.59584 64.7756C4.79107 64.5902 3.77642 63.616 3.40942 61.8357C2.63657 58.1027 1.84644 54.3784 1.10812 50.6411C0.663406 48.3909 1.57875 46.9382 3.84551 46.4382C7.57595 45.6149 11.3021 44.7872 15.0455 44.0415C17.3036 43.5932 18.7975 44.632 19.294 46.8261C20.1403 50.5419 20.87 54.2878 21.6169 58.0251C21.9796 59.8356 21.5608 61.4866 19.6222 61.978C15.5377 63.0082 11.3971 63.8316 7.27371 64.7282Z" fill="white"/>
<path d="M63.3082 55.1545C63.0319 55.2148 62.7426 55.245 62.462 55.2148C60.2039 54.982 58.9388 53.7664 58.4811 51.5422C57.5183 46.8824 56.5296 42.2226 55.6056 37.5542C55.0486 34.7437 56.1928 32.9289 59.0251 32.3038C63.6839 31.2779 68.3426 30.2434 73.0186 29.3123C75.8424 28.7476 77.7033 30.0494 78.3293 32.7909C79.3871 37.4335 80.3025 42.1105 81.2308 46.7832C81.6798 49.0463 81.1617 51.1111 78.7395 51.7189C73.6317 53.0078 68.4549 54.0294 63.3082 55.1545Z" fill="white"/>
<path d="M37.5011 94.7214C37.078 94.8119 36.6376 94.8335 36.2058 94.7861C33.0151 94.424 31.219 92.6652 30.5627 89.4883C29.1681 82.7465 27.7433 76.009 26.4048 69.2586C25.5974 65.1936 27.2511 62.5642 31.3485 61.6632C38.084 60.1804 44.8238 58.6803 51.5853 57.3354C55.6698 56.5207 58.3596 58.4001 59.262 62.3659C60.7905 69.0818 62.1117 75.8452 63.4588 82.5999C64.1107 85.8717 63.3552 88.8547 59.8579 89.7383C52.4618 91.6135 44.962 93.0963 37.5011 94.7214Z" fill="white"/>
<path d="M87.8578 64.4997C86.3336 64.4953 85.5564 63.7367 85.2801 62.4823C84.7577 60.0985 84.3 57.7061 83.8164 55.3137C83.4667 53.5765 84.1878 52.5506 85.9105 52.1885C88.2291 51.7014 90.5433 51.1928 92.8705 50.7358C94.4637 50.4212 95.5734 51.0419 95.9317 52.6627C96.4585 55.0421 96.9162 57.4388 97.3868 59.8312C97.7236 61.5469 97.063 62.5771 95.297 62.9263C92.7583 63.4263 90.2368 63.9953 87.8578 64.4997Z" fill="white"/>
<g clip-path="url(#clip0_387_3426)">
<path d="M91.1301 98.61C90.8001 98.61 90.2601 98.55 89.5201 98.26C83.2601 95.65 80.2001 88.55 82.5301 82.1C84.4501 76.8 88.8101 73.76 94.4901 73.75C98.8101 73.75 102.82 75.83 105.24 79.31C107.6 82.71 108.13 86.86 106.7 90.7C106.49 91.26 105.91 92.06 105.54 92.41C105.4 92.54 105.22 92.61 105.03 92.61C104.99 92.61 104.95 92.61 104.91 92.6C104.68 92.56 104.48 92.42 104.37 92.22C104.16 91.84 103.95 91.37 103.76 90.94C103.58 90.53 103.42 90.16 103.27 89.9C102.8 89.08 102.85 88.61 102.99 87.94C103.05 87.66 103.11 87.35 103.12 86.93C103.23 83.14 101.01 79.8 97.4701 78.43C96.5001 78.05 95.4901 77.86 94.4901 77.86C92.0701 77.86 89.7901 78.96 88.0801 80.95C85.2201 84.26 85.5901 89.68 88.8801 92.77C89.2001 93.08 89.4701 93.26 89.7301 93.43C90.3301 93.84 90.7101 94.14 91.1801 95.14L91.3701 95.48C91.6801 96.05 92.0101 96.64 92.2401 97.35C92.3301 97.63 92.3301 97.87 92.2401 98.07C92.2101 98.13 92.1801 98.19 92.1301 98.25C91.9201 98.49 91.6001 98.61 91.1301 98.61Z" fill="white"/>
<path d="M94.5197 74.5C98.5697 74.5 102.34 76.46 104.62 79.74C106.84 82.93 107.34 86.83 105.99 90.44C105.83 90.86 105.33 91.57 105.02 91.86C104.82 91.49 104.61 91.03 104.43 90.62C104.24 90.2 104.07 89.81 103.91 89.54C103.55 88.9 103.6 88.63 103.71 88.1C103.77 87.81 103.84 87.45 103.85 86.97C103.97 82.86 101.56 79.24 97.7197 77.74C96.6497 77.32 95.5497 77.12 94.4697 77.12C91.8797 77.12 89.3697 78.29 87.4897 80.47C84.3797 84.08 84.7697 89.97 88.3397 93.33C88.7097 93.68 89.0197 93.89 89.2897 94.07C89.7697 94.4 90.0697 94.6 90.4697 95.47L90.6797 95.85C90.9897 96.41 91.2897 96.94 91.4897 97.58C91.5297 97.71 91.5197 97.77 91.5197 97.78C91.4897 97.82 91.3497 97.86 91.1197 97.86C90.8197 97.86 90.3597 97.79 89.7797 97.56C83.9097 95.1 81.0297 88.42 83.2297 82.35C85.0297 77.37 89.1397 74.51 94.4897 74.5C94.4997 74.5 94.5097 74.5 94.5197 74.5ZM94.5197 73H94.4897C88.4697 73.01 83.8597 76.23 81.8297 81.84C79.3597 88.67 82.5997 96.18 89.2097 98.95C89.9097 99.22 90.5597 99.36 91.1297 99.36C91.8297 99.36 92.3597 99.14 92.7097 98.71C92.7997 98.6 92.8697 98.48 92.9197 98.35C93.0697 97.98 93.0797 97.57 92.9397 97.13C92.6897 96.34 92.3397 95.71 92.0097 95.11L91.8197 94.77C91.2897 93.65 90.8197 93.27 90.1497 92.82C89.8997 92.65 89.6697 92.49 89.3897 92.22C86.3697 89.4 86.0297 84.46 88.6397 81.44C90.2097 79.61 92.2897 78.61 94.4897 78.61C95.3997 78.61 96.3097 78.78 97.1997 79.13C100.44 80.39 102.47 83.44 102.37 86.92C102.36 87.27 102.31 87.54 102.25 87.8C102.1 88.57 102.03 89.24 102.62 90.28C102.74 90.49 102.9 90.85 103.07 91.23C103.27 91.67 103.48 92.16 103.71 92.58C103.93 92.99 104.33 93.27 104.78 93.34C104.86 93.35 104.94 93.36 105.02 93.36C105.39 93.36 105.76 93.22 106.04 92.96C106.49 92.54 107.14 91.65 107.4 90.97C108.92 86.89 108.36 82.49 105.86 78.88C103.3 75.2 99.0597 73 94.5197 73Z" fill="#1669AA"/>
<path d="M124.1 150.91C123.74 150.91 123.39 150.84 123.07 150.71C122.33 150.42 121.74 149.81 121.31 148.91C121.13 148.53 120.94 148.2 120.75 147.84C120.6 147.56 120.44 147.28 120.28 146.97C119.97 146.36 119.59 145.55 119.44 144.65C119.07 142.48 117.66 141.27 116.11 140.11C112.04 137.07 108.33 133.5 104.74 130.05L104.61 129.93C103.23 128.61 101.86 127.29 100.47 126.01C98.5702 124.24 97.7402 122 97.8802 118.97L97.8902 118.84C98.0402 117.13 98.2902 115.12 99.0702 113.23C99.5702 112 99.4902 110.89 98.7702 109.37C96.7002 105 94.6702 100.6 92.6402 96.22L92.4702 95.84C91.4802 93.7 90.5002 91.57 89.5102 89.43C88.8202 87.94 88.2002 86.16 88.8802 84.2C89.7502 81.68 91.5702 80.19 93.9902 80.01C94.1702 80.01 94.3602 80 94.5402 80C95.6802 80 96.7302 80.29 97.6402 80.86C98.6502 81.49 99.4602 82.44 100.05 83.68C103.07 90.07 105.35 94.99 107.44 99.65L107.55 99.9C107.71 100.26 107.85 100.58 108 100.85C108.2 101.21 108.33 101.34 108.38 101.38H108.49C108.63 101.34 108.95 101.2 109.51 100.69C110.31 99.97 111.39 99.57 112.54 99.57C113.1 99.57 113.66 99.66 114.2 99.85C114.59 99.98 114.95 100.05 115.26 100.05C115.41 100.05 115.55 100.04 115.68 100.01C116.1 99.92 116.5 99.67 116.9 99.25C117.97 98.12 119.34 97.52 120.85 97.52C121.43 97.52 122.03 97.61 122.63 97.79C122.95 97.89 123.24 97.93 123.5 97.93C123.67 97.93 123.83 97.91 123.99 97.87C124.39 97.77 124.8 97.55 125.28 97.16C126.58 96.11 128.02 95.55 129.44 95.55C129.81 95.55 130.18 95.59 130.54 95.67C132.29 96.05 133.77 97.31 134.69 99.22C137.27 104.54 139.69 109.91 142.36 115.87C143.63 118.69 143.72 121.67 143.63 124.46C143.53 127.52 144.21 129.68 145.81 131.45C146.61 132.33 147.09 133.35 147.41 134.13C147.6 134.58 147.76 135.03 147.95 135.56C148.11 136.01 148.26 136.41 148.41 136.78C148.75 137.61 148.77 138.39 148.47 139.1C148.4 139.27 148.27 139.4 148.11 139.48L125.65 150.53C125.1 150.78 124.59 150.91 124.1 150.91Z" fill="white"/>
<path d="M94.5402 80.75C95.5502 80.75 96.4602 81.01 97.2502 81.5C98.1302 82.05 98.8502 82.89 99.3802 84C102.4 90.39 104.68 95.31 106.76 99.95L106.87 100.2C107.04 100.58 107.19 100.91 107.35 101.2C107.56 101.59 107.76 101.84 107.96 101.98C108.1 102.08 108.25 102.13 108.42 102.13C108.51 102.13 108.61 102.11 108.71 102.09C109.07 101.99 109.51 101.7 110.03 101.24C110.7 100.63 111.6 100.31 112.56 100.31C113.03 100.31 113.51 100.39 113.98 100.55C114.45 100.71 114.88 100.78 115.28 100.78C115.48 100.78 115.67 100.76 115.86 100.72C116.43 100.6 116.95 100.28 117.46 99.74C118.4 98.76 119.57 98.25 120.86 98.25C121.37 98.25 121.89 98.33 122.43 98.49C122.82 98.61 123.17 98.66 123.51 98.66C123.74 98.66 123.96 98.63 124.18 98.58C124.69 98.46 125.19 98.18 125.76 97.72C126.93 96.77 128.21 96.28 129.45 96.28C129.77 96.28 130.08 96.31 130.39 96.38C131.91 96.71 133.2 97.82 134.02 99.52C136.59 104.83 139.01 110.19 141.69 116.15C142.89 118.83 142.98 121.71 142.9 124.41C142.8 127.68 143.53 130 145.27 131.93C145.99 132.73 146.43 133.67 146.73 134.39C146.91 134.84 147.08 135.29 147.27 135.81C147.42 136.23 147.57 136.64 147.73 137.03C147.99 137.67 148.01 138.26 147.79 138.77L125.31 149.86C124.88 150.06 124.47 150.16 124.09 150.16C123.83 150.16 123.58 150.11 123.34 150.02C122.78 149.8 122.32 149.32 121.97 148.59C121.78 148.2 121.59 147.85 121.38 147.47C121.23 147.21 121.08 146.93 120.92 146.62C120.63 146.06 120.28 145.32 120.15 144.52C119.74 142.08 118.14 140.71 116.53 139.51C112.5 136.5 108.81 132.96 105.23 129.51C103.81 128.14 102.39 126.78 100.95 125.45C99.2202 123.84 98.4702 121.79 98.6002 119C98.6002 119 98.6102 118.93 98.6102 118.9C98.7502 117.23 99.0002 115.29 99.7302 113.51C100.31 112.09 100.22 110.75 99.4102 109.04C97.3102 104.58 95.2502 100.11 93.1902 95.64L93.1302 95.52C92.1502 93.38 91.1602 91.25 90.1702 89.12C89.5402 87.77 88.9802 86.16 89.5702 84.45C90.1102 82.88 91.3302 80.97 94.0302 80.77C94.2102 80.75 94.3802 80.75 94.5402 80.75ZM94.5402 79.25C94.3402 79.25 94.1402 79.26 93.9302 79.27C91.1902 79.47 89.1502 81.14 88.1702 83.96C87.4002 86.18 88.1202 88.22 88.8302 89.75C89.8202 91.88 90.8002 94.01 91.7802 96.15L91.8402 96.28L91.8902 96.4C93.9002 100.76 95.9802 105.27 98.0602 109.69C98.7802 111.22 98.7002 112.1 98.3502 112.95C97.5402 114.94 97.2702 117.01 97.1202 118.78C97.1202 118.79 97.1202 118.8 97.1202 118.81L97.1102 118.89C97.1102 118.91 97.1102 118.92 97.1102 118.94C96.9702 122.16 97.8902 124.65 99.9402 126.56C101.32 127.84 102.72 129.18 104.07 130.48L104.2 130.6C107.8 134.06 111.53 137.65 115.64 140.72C117.06 141.78 118.36 142.89 118.68 144.78C118.85 145.78 119.26 146.66 119.6 147.32C119.77 147.64 119.92 147.93 120.08 148.21C120.26 148.54 120.45 148.88 120.62 149.24C121.14 150.32 121.87 151.05 122.79 151.41C123.2 151.57 123.64 151.66 124.09 151.66C124.69 151.66 125.31 151.51 125.94 151.22L148.42 140.12C148.74 139.96 149 139.69 149.14 139.36C149.4 138.74 149.6 137.74 149.09 136.47C149.09 136.46 149.09 136.46 149.08 136.45C148.93 136.08 148.8 135.71 148.66 135.31C148.46 134.75 148.29 134.28 148.09 133.81C147.74 132.97 147.23 131.88 146.35 130.91C144.87 129.27 144.28 127.34 144.37 124.44C144.46 121.56 144.36 118.48 143.03 115.52C140.35 109.54 137.92 104.16 135.35 98.85C134.32 96.72 132.66 95.32 130.68 94.89C130.27 94.8 129.85 94.76 129.43 94.76C127.84 94.76 126.24 95.38 124.8 96.54C124.41 96.86 124.09 97.03 123.81 97.1C123.71 97.12 123.61 97.14 123.5 97.14C123.31 97.14 123.1 97.1 122.85 97.03C122.18 96.83 121.51 96.73 120.86 96.73C119.14 96.73 117.59 97.41 116.37 98.69C116.07 99 115.8 99.18 115.54 99.24C115.46 99.26 115.37 99.27 115.28 99.27C115.05 99.27 114.77 99.22 114.45 99.11C113.83 98.9 113.19 98.8 112.55 98.8C111.21 98.8 109.96 99.27 109.02 100.12C108.87 100.26 108.74 100.36 108.64 100.44C108.52 100.21 108.38 99.91 108.24 99.59L108.13 99.35C106.04 94.68 103.76 89.75 100.74 83.36C100.09 81.99 99.1802 80.93 98.0502 80.23C97.0002 79.58 95.8202 79.25 94.5402 79.25Z" fill="#1669AA"/>
</g>
<defs>
<clipPath id="clip0_387_3426">
<rect width="68.41" height="78.66" fill="white" transform="translate(81 73)"/>
</clipPath>
</defs>
</svg>
