<svg width="147" height="125" viewBox="0 0 147 125" fill="none" xmlns="http://www.w3.org/2000/svg">
<g clip-path="url(#clip0_18_5643)">
<path d="M68.054 81.4181V105.844C68.054 106.246 67.9851 106.9 67.9025 107.294V107.299C67.4479 109.48 66.2494 111.11 64.1996 111.995C56.4053 115.353 48.5973 118.675 40.7947 122.014C38.8965 122.827 37.0119 122.808 35.1219 121.989C32.6891 120.936 30.2564 119.883 27.8071 118.871C27.4048 118.706 27.2285 118.251 27.4021 117.851C28.179 116.067 28.5151 114.165 28.4986 112.237C28.4077 101.815 18.8391 94.4401 8.76359 97.0207C8.01144 97.2137 7.93981 97.0097 7.93981 96.3535C7.95358 91.4679 7.92052 86.5822 7.93981 81.6994C7.95083 78.9091 9.26227 76.8716 11.797 75.7329C19.6023 72.2259 27.4268 68.7601 35.2514 65.2944C36.9899 64.5252 38.9736 64.5169 40.7148 65.2806C43.4479 66.4828 46.1755 67.6959 48.8976 68.9228C49.2805 69.0938 49.7324 69.1654 50.063 69.5597C49.275 69.9347 48.5449 70.2876 47.8093 70.635C39.1031 74.7321 30.3996 78.8292 21.6934 82.9235C21.3297 83.0945 20.9661 83.1882 20.9743 83.7534C21.0074 86.3699 20.9881 88.9865 20.9909 91.6002C20.9909 91.8428 20.955 92.0772 21.2746 92.2178C22.8506 92.8961 24.4155 93.6019 26.0768 94.338C26.0768 91.5589 26.0906 88.9175 26.0658 86.2734C26.0603 85.7386 26.1925 85.4353 26.716 85.1926C36.0284 80.8391 45.3324 76.4636 54.6283 72.0742C55.1407 71.8316 55.5319 71.8592 56.0306 72.0852C58.3477 73.1412 60.6482 74.2413 63.0204 75.1622C65.0454 75.948 66.58 77.128 67.4809 78.9257C67.8667 79.6977 68.054 80.5551 68.054 81.4181ZM57.309 94.4097C57.309 94.917 57.309 95.2617 57.309 95.6063C57.3117 98.3138 57.3062 101.024 57.3228 103.732C57.3283 104.713 57.5542 104.856 58.4551 104.509C58.9235 104.327 59.3753 104.101 59.8465 103.93C60.7639 103.602 61.1579 103.001 61.1441 101.997C61.1138 99.5104 61.2185 97.0207 61.1607 94.5366C61.1331 93.2931 61.224 92.3584 62.6402 91.8539C63.6348 91.4982 63.6513 90.7372 62.9405 89.9239C62.1332 88.9975 61.326 88.0766 60.516 87.153C59.6784 86.1962 59.0668 86.2569 58.4689 87.3873C58.1025 88.0821 57.7856 88.8017 57.4468 89.5103C56.7993 90.8723 56.1463 92.2316 55.5126 93.5991C55.3198 94.0127 54.9203 94.4869 55.2922 94.9032C55.6917 95.3499 56.1573 94.8922 56.5816 94.7433C56.7828 94.6717 56.9701 94.5669 57.309 94.4097ZM48.7598 103.45C48.735 103.45 48.746 101.118 48.6717 99.9571C48.6055 98.9259 48.7543 98.2173 49.8949 97.8065C50.9171 97.437 50.9667 96.6678 50.2393 95.8159C49.5037 94.9529 48.7708 94.0899 48.0352 93.2297C47.1701 92.2178 46.6218 92.2674 46.0543 93.4751C45.1065 95.4933 44.1973 97.5336 43.2799 99.5656C43.1256 99.9074 42.9079 100.293 43.2606 100.605C43.5747 100.883 43.9466 100.649 44.2221 100.475C45.0459 99.9598 45.1589 100.285 45.1534 101.096C45.1341 103.74 45.1754 106.387 45.2057 109.031C45.2167 109.932 45.4316 110.095 46.192 109.803C46.7183 109.599 47.2307 109.359 47.757 109.144C48.4926 108.843 48.7846 108.3 48.7708 107.512C48.7405 106.158 48.7598 104.804 48.7598 103.45ZM64.9076 104.777C64.9324 103.69 64.9076 103.668 63.9351 104.082C57.1161 106.985 50.2999 109.891 43.481 112.797C43.0181 112.993 42.5332 113.147 42.0979 113.393C41.4202 113.773 41.4394 114.187 41.613 114.724C41.7783 115.237 42.3459 115.096 42.6076 114.989C49.7351 112.006 56.8516 109.003 63.9764 106.014C64.5881 105.758 65.0399 105.455 64.9076 104.777Z" fill="white"/>
<path d="M0 112.028C0 111.156 0.10745 110.288 0.327861 109.444C0.608884 108.369 0.928479 107.305 1.44644 106.293C3.94259 101.427 9.4253 98.6832 14.9604 99.5931C20.2612 100.464 24.5813 104.851 25.3748 110.169C26.4548 117.421 21.479 124.057 14.3267 124.906C7.41406 125.728 1.18471 120.928 0.162553 114.002C0.162553 113.999 0.162553 113.999 0.162553 113.996C0.0826539 113.492 0 112.984 0 112.472V112.028ZM21.5947 108.471C21.5809 107.421 21.198 106.806 20.4238 106.486C19.5421 106.122 18.7624 106.32 18.1233 107.04C16.0955 109.32 14.0567 111.592 12.0509 113.892C11.679 114.319 11.4503 114.382 11.0012 113.991C10.1031 113.205 9.15806 112.469 8.20753 111.744C7.21844 110.988 6.01996 111.101 5.35322 111.978C4.64515 112.905 4.78842 114.002 5.77475 114.807C7.30936 116.061 8.85499 117.302 10.4199 118.518C11.5137 119.37 12.4725 119.287 13.412 118.242C15.955 115.408 18.4704 112.549 21.0051 109.706C21.3771 109.29 21.6112 108.832 21.5947 108.471Z" fill="white"/>
<path d="M129.761 52.0438C133.2 55.8128 131.15 61.7433 125.339 61.9667C126.014 64.3406 125.621 66.4222 123.372 67.7291C121.744 68.6748 120.014 68.5865 118.49 67.4423C116.642 66.0583 116.327 64.1586 117 61.9529C111.33 61.9529 105.709 61.9529 100.042 61.9529C100.714 64.2716 100.339 66.2623 98.2373 67.6464C96.7412 68.6307 94.6859 68.5314 93.2477 67.5002C91.5781 66.3036 91.0767 64.5336 91.7186 61.8702C91.3164 61.8702 90.9417 61.8977 90.5725 61.8647C89.6605 61.7819 89.0213 61.1202 89.0599 60.2738C89.104 59.3639 89.622 58.8539 90.5201 58.7519C90.87 58.7133 91.2255 58.7326 91.5781 58.7326C102.637 58.7326 113.694 58.7353 124.753 58.7353C125.177 58.7353 125.604 58.7463 126.023 58.6995C127.353 58.5589 128.304 57.5222 128.323 56.2263C128.343 54.9057 127.351 53.7835 126.009 53.6374C125.695 53.6015 125.373 53.6236 125.056 53.6236C113.997 53.6236 102.94 53.6264 91.8812 53.6236C87.9771 53.6236 85.3873 51.0457 85.3791 47.1168C85.3653 41.2468 85.3735 35.3797 85.3735 29.5097C85.3735 27.5853 85.7483 27.2048 87.6493 27.2048C102.521 27.2048 117.396 27.1965 132.269 27.2268C133.249 27.2296 133.721 27.0283 134.007 25.9751C135.17 21.7208 138.278 19.3773 143.047 18.9885C143.821 18.9251 144.598 18.8396 145.369 18.8617C146.405 18.892 147.006 19.5179 147 20.4333C146.992 21.3376 146.369 21.8422 145.353 22.0021C143.587 22.2805 141.804 22.5425 140.09 23.0277C138.363 23.5157 137.404 24.8254 136.991 26.5955C135.393 33.4304 133.743 40.2543 132.139 47.0892C131.712 48.9061 131.095 50.6101 129.761 52.0438ZM109.393 50.5439C111.969 50.5439 117.03 50.508 117.242 50.4915C117.553 48.7573 117.967 46.342 118.24 44.5802C115.429 44.5802 112.663 44.5802 109.839 44.5802C109.69 46.5791 109.547 48.5009 109.393 50.5439ZM98.8847 44.5554C98.8847 46.3972 98.8957 48.7131 98.9398 50.5053C99.2291 50.5329 103.764 50.5466 105.985 50.5466C106.142 48.4843 106.288 46.5378 106.437 44.5554C103.855 44.5554 101.433 44.5554 98.8847 44.5554ZM129.624 44.5526C126.88 44.5526 124.317 44.5526 121.675 44.5526C121.367 46.5267 121.061 48.4623 120.733 50.5522C122.364 50.5522 123.868 50.5273 125.373 50.5604C126.728 50.5908 127.742 50.009 128.238 48.7986C128.792 47.4449 129.155 46.0112 129.624 44.5526ZM88.4924 44.5389C88.4924 45.5287 88.4786 46.4054 88.4951 47.2794C88.5282 49.1295 89.7156 50.4253 91.5506 50.5329C92.6388 50.5963 95.1873 50.508 95.4628 50.508C95.5152 48.6911 95.5455 46.3806 95.5455 44.5416C93.143 44.5389 90.8948 44.5389 88.4924 44.5389ZM110.864 30.6925C110.795 31.8864 110.732 32.9534 110.668 34.0314C113.864 34.0314 116.881 34.0314 119.934 34.0314C120.107 32.89 120.27 31.8312 120.441 30.6925C117.204 30.6925 114.115 30.6925 110.864 30.6925ZM110.115 41.1145C112.895 41.1145 118.496 41.0952 118.722 41.0566C118.92 40.0365 119.179 38.6717 119.35 37.5468C116.465 37.5468 113.165 37.4282 110.418 37.4696C110.39 37.6984 110.181 40.042 110.115 41.1145ZM123.364 34.1059C126.205 34.1059 131.618 34.0866 131.957 34.1059C132.216 33.1629 132.55 31.754 132.798 30.7036C129.759 30.7036 126.852 30.7036 123.888 30.7036C123.717 31.8312 123.551 32.8955 123.364 34.1059ZM122.27 41.12C124.879 41.12 127.342 41.131 129.803 41.1007C130.009 41.098 130.348 40.8774 130.401 40.6927C130.684 39.6973 130.897 38.68 131.153 37.5936C128.276 37.5936 125.576 37.5936 122.821 37.5936C122.686 38.3243 122.549 39.0136 122.433 39.7056C122.364 40.1192 122.336 40.541 122.27 41.12ZM98.882 30.6981C98.882 31.2136 98.882 33.5544 98.882 34.0369C100.006 34.1279 105.056 34.1169 107.208 34.1169C107.304 32.9038 107.387 31.8368 107.478 30.6981C104.613 30.6981 101.88 30.6981 98.882 30.6981ZM106.921 37.5468C104.323 37.5468 98.8461 37.6322 98.8461 37.6322L98.9398 41.1228C98.9398 41.1228 106.401 41.0814 106.676 41.0731C106.808 40.1771 106.866 38.6276 106.921 37.5468ZM88.5006 41.12C90.0683 41.12 94.1156 41.1945 95.5565 41.1945C95.5262 39.5016 95.5951 37.6378 95.5951 37.6378C95.5951 37.6378 88.7651 37.5661 88.5475 37.5992C88.4951 38.5724 88.5006 40.0172 88.5006 41.12ZM88.575 30.6925C88.575 31.8119 88.575 32.8845 88.575 34.0369C90.8838 34.0369 93.154 34.0369 95.4766 34.0369C95.4766 32.8955 95.4766 31.823 95.4766 30.6925C93.1871 30.6925 90.9692 30.6925 88.575 30.6925ZM95.7797 65.6916C96.8569 65.7191 97.7 64.9499 97.7358 63.9049C97.7716 62.8793 96.9534 61.9832 95.934 61.9281C94.9228 61.8729 94.0302 62.7083 93.9861 63.7505C93.942 64.8231 94.719 65.6667 95.7797 65.6916ZM123.02 63.836C123.022 62.8214 122.146 61.9198 121.154 61.9198C120.176 61.9198 119.248 62.8407 119.242 63.8222C119.237 64.8203 120.119 65.6971 121.141 65.7026C122.201 65.7081 123.017 64.9003 123.02 63.836Z" fill="white"/>
<path d="M90.4013 24.4201C89.0733 24.8088 88.222 24.5221 87.4423 23.3751C84.5246 19.0878 76.7909 8.90021 73.8071 4.65699C71.9364 1.99636 69.6689 1.29605 66.619 2.46231C58.1855 5.68264 49.7548 8.90572 41.3241 12.1316C38.1061 13.364 37.3705 15.7985 39.3845 18.6384C54.1988 39.5347 69.0187 60.4255 83.8385 81.319C92.3106 93.2629 100.777 105.21 109.249 117.153C110.607 119.067 111.878 119.729 113.622 119.152C114.437 118.885 115.294 118.314 115.809 117.636C121.683 109.935 127.507 102.19 133.321 94.4429C134.864 92.3889 134.861 90.0729 133.362 87.9168C131.136 84.713 125.105 77.0206 122.865 73.8279C122.603 73.4556 122.154 72.7829 121.876 72.3721C121.176 71.0321 122.612 70.3759 123.355 71.3189C124.207 72.5182 125.019 73.6569 125.824 74.7984C127.518 77.1998 132.985 84.1092 134.673 86.5107C136.946 89.7448 136.935 92.7831 134.561 95.8987C127.799 104.771 121.06 113.66 114.222 122.472C111.492 125.993 107.205 125.756 104.615 122.108C92.0433 104.404 79.4799 86.6981 66.9138 68.9919C55.648 53.1191 44.3933 37.2407 33.1111 21.379C31.6784 19.3663 31.3423 17.3067 32.3892 15.0459C33.045 13.6232 34.1773 12.7436 35.599 12.2033C45.837 8.3157 56.0723 4.41987 66.3214 0.559891C69.6689 -0.700117 72.8869 0.160108 74.9147 2.96687C78.4633 7.87456 86.6102 18.8397 90.0927 23.797C90.2139 23.9762 90.2855 24.1857 90.4013 24.4201Z" fill="white"/>
<path d="M120.769 98.5895C122.717 98.6308 124.546 101.038 123.879 102.634C123.673 103.133 122.783 103.66 122.224 103.643C120.719 103.596 119.24 101.631 119.369 100.111C119.452 99.1519 119.945 98.5895 120.769 98.5895Z" fill="white"/>
</g>
<defs>
<clipPath id="clip0_18_5643">
<rect width="147" height="125" fill="white"/>
</clipPath>
</defs>
</svg>
