<svg width="74" height="66" viewBox="0 0 74 66" fill="none" xmlns="http://www.w3.org/2000/svg">
<g clip-path="url(#clip0_1_2201)">
<path d="M36.0201 18.7821C36.0115 20.7837 35.702 22.7384 35.0041 24.6145C34.7373 25.3313 34.9123 25.5738 35.6508 25.5546C36.5387 25.5312 37.4288 25.5185 38.3146 25.5568C39.1576 25.5951 39.2281 25.2824 38.9784 24.5549C37.9816 21.6558 37.6742 18.6822 38.2548 15.6533C38.8418 12.5924 40.5023 10.257 43.1767 8.65316C43.6442 8.37239 43.8811 8.10226 43.896 7.50669C43.9793 3.87583 46.6195 0.783106 50.1178 0.147121C53.7655 -0.516517 57.2638 1.3255 58.7601 4.70112C60.2093 7.97251 59.1763 11.8926 56.1902 13.9729C55.3877 14.5323 55.155 15.1087 55.0931 16.0276C54.8093 20.1966 52.4358 23.0064 48.9418 25.0144C47.1403 26.0481 45.198 26.7352 43.1682 27.1521C42.5343 27.2818 42.5001 27.4966 42.7904 27.9901C43.2408 28.7537 43.6741 29.528 44.0753 30.3171C44.436 31.0233 44.7092 31.1722 45.341 30.4809C47.0293 28.6346 48.9695 27.0861 51.264 26.0268C54.6684 24.4528 58.0557 24.3486 61.3854 26.2289C61.808 26.4671 62.1004 26.4693 62.5358 26.2268C65.7929 24.4103 69.7523 25.1611 72.1898 28.0156C74.5355 30.7638 74.6145 34.9285 72.3712 37.7447C70.0063 40.7162 66.0128 41.6011 62.6831 39.876C62.2584 39.6569 61.9339 39.4804 61.4281 39.7739C57.791 41.8776 54.1519 41.5415 50.5469 39.6718C48.5042 38.6126 46.7647 37.1555 45.2279 35.4624C44.7839 34.9732 44.5449 34.8519 44.1906 35.539C43.7872 36.326 43.2792 37.0577 42.8096 37.8085C42.4212 38.4296 42.4361 38.7466 43.3005 38.9316C46.2567 39.5633 48.9845 40.7226 51.3259 42.6901C53.7463 44.7236 55.0462 47.3037 55.1316 50.4581C55.1465 51.0473 55.3215 51.3876 55.8231 51.7343C58.5509 53.6167 59.8294 56.2181 59.251 59.515C58.6683 62.8438 56.6107 64.9432 53.3365 65.7728C48.7497 66.9341 44.1692 63.4713 43.8598 58.6217C43.8213 58.0218 43.6442 57.6751 43.1276 57.3603C39.7062 55.2779 38.1886 52.1086 37.9965 48.2204C37.8813 45.8956 38.2057 43.6196 38.9421 41.4139C39.1811 40.6971 39.0317 40.4907 38.2868 40.478C37.2196 40.4588 35.8365 40.0611 35.1812 40.6481C34.5217 41.2416 35.448 42.4795 35.6252 43.4452C36.1054 46.0551 36.2634 48.6501 35.5356 51.2387C34.8141 53.8018 33.3627 55.8395 31.0725 57.2369C30.4855 57.5943 30.1953 57.9623 30.1355 58.7152C29.794 63.1523 26.2253 66.179 21.7302 65.9323C17.7196 65.7132 14.4518 62.0823 14.6205 57.941C14.7293 55.2439 15.9929 53.1445 18.2554 51.662C18.5926 51.4408 18.8765 51.2876 18.8765 50.7963C18.8786 46.1231 21.4292 43.0793 25.3075 40.9034C27.0257 39.9398 28.8698 39.2932 30.795 38.9018C31.5143 38.7572 31.6125 38.5062 31.2518 37.9255C30.7651 37.1428 30.2785 36.3579 29.8367 35.5496C29.4994 34.9328 29.2604 34.9455 28.7801 35.4667C26.8848 37.5193 24.7269 39.2315 22.0994 40.2908C18.8402 41.6053 15.6471 41.567 12.5714 39.7718C12.0506 39.4676 11.7369 39.6718 11.3207 39.8824C7.73059 41.6904 3.40414 40.5375 1.26119 37.2151C-0.930844 33.8118 -0.207279 29.4365 2.97086 26.8989C5.39982 24.9612 8.70175 24.6932 11.4808 26.2247C11.7988 26.4012 12.0464 26.5586 12.4455 26.331C17.3376 23.5595 21.7451 24.8995 25.9264 27.9646C26.9296 28.7005 27.8752 29.5237 28.6734 30.4745C29.2668 31.1807 29.5912 31.0148 29.9583 30.3086C30.3489 29.5535 30.7758 28.8154 31.2134 28.0858C31.5506 27.5243 31.525 27.2882 30.7737 27.1223C27.6105 26.4204 24.6735 25.2164 22.2638 22.9618C20.1102 20.9475 18.9341 18.4801 18.8829 15.5299C18.8722 14.8705 18.6118 14.5493 18.0974 14.1941C15.4678 12.3755 14.2405 9.83154 14.7101 6.67927C15.2053 3.36321 17.1946 1.17448 20.4602 0.272616C25.2007 -1.03764 30.0053 2.55919 30.127 7.4684C30.1376 7.9087 30.1462 8.26179 30.6179 8.52767C35.066 11.0376 36.1204 15.2491 36.0201 18.7821ZM40.1907 47.2228C40.1971 50.2602 40.9975 52.8808 43.4243 54.8228C44.0092 55.2907 44.3272 55.4502 44.8138 54.5994C46.3848 51.8491 48.803 50.4198 52.0217 50.5687C52.8264 50.607 52.9011 50.3049 52.8285 49.6711C52.5745 47.4334 51.4796 45.6658 49.7785 44.2513C47.563 42.4115 44.9398 41.4713 42.1608 40.8757C41.5823 40.7524 41.4137 40.9906 41.2579 41.4585C40.6283 43.358 40.2355 45.2915 40.1907 47.2228ZM33.8152 47.3717C33.7683 45.3489 33.3947 43.3729 32.7416 41.4458C32.6071 41.0502 32.4769 40.7354 31.9327 40.8545C28.9039 41.5075 26.0438 42.537 23.7344 44.6874C22.2595 46.0615 21.3567 47.7546 21.171 49.7966C21.1176 50.3857 21.2371 50.5984 21.8988 50.5665C25.2626 50.3985 27.7001 51.9321 29.3244 54.7908C29.6467 55.3588 29.8452 55.3737 30.3297 55.0121C32.8825 53.0913 33.7896 50.4432 33.8152 47.3717ZM56.2009 38.8976C57.3172 38.9167 58.3759 38.6764 59.4132 38.268C60.0343 38.0234 60.0919 37.8213 59.744 37.2151C58.1091 34.3755 58.0216 31.4997 59.8507 28.6984C60.2307 28.1156 60.0407 27.9412 59.5263 27.72C58.1945 27.1435 56.8199 26.8713 55.3749 27.0712C51.5884 27.5945 48.8607 29.847 46.404 32.542C46.039 32.9419 46.2332 33.2205 46.5256 33.5353C47.9557 35.0753 49.4925 36.4855 51.3473 37.5044C52.8542 38.3318 54.4443 38.9103 56.2009 38.8976ZM17.9288 38.9061C18.0227 38.8997 18.3087 38.8933 18.5905 38.855C22.4324 38.3488 25.1773 36.0559 27.651 33.3226C28.0075 32.9291 27.6873 32.659 27.4675 32.4122C25.4377 30.1193 23.109 28.2454 20.1038 27.3626C18.1529 26.7883 16.2426 26.9011 14.3878 27.7625C13.9908 27.9476 13.7624 28.0986 14.0997 28.6091C15.9758 31.4359 15.9395 34.3351 14.2448 37.2193C13.882 37.8383 14.0335 38.051 14.6226 38.2786C15.63 38.6679 16.6567 38.9061 17.9288 38.9061ZM33.8003 18.6184C33.8003 18.4418 33.8067 18.2631 33.8003 18.0866C33.6807 15.2279 32.7587 12.7477 30.3959 10.9546C30.0266 10.676 29.7086 10.3463 29.3436 11.0567C27.777 14.0984 25.2562 15.5809 21.8156 15.4193C21.188 15.3895 21.1155 15.6384 21.1667 16.1595C21.2734 17.2358 21.5488 18.2525 22.1208 19.1735C24.411 22.8576 28.0843 24.2295 32.0735 25.0739C32.5623 25.1782 32.5794 24.8208 32.6904 24.5379C33.4396 22.6363 33.7469 20.6518 33.8003 18.6184ZM40.1886 18.7736C40.2718 20.5901 40.545 22.5385 41.2664 24.4124C41.4607 24.9208 41.672 25.1548 42.2653 25.025C44.8949 24.4528 47.3773 23.5616 49.5138 21.8727C51.2427 20.505 52.4081 18.7885 52.8008 16.5892C52.9395 15.8128 52.8947 15.3874 51.8488 15.4193C48.6899 15.515 46.3058 14.0835 44.8138 11.3332C44.3485 10.476 44.0369 10.5888 43.4329 11.078C41.0295 13.0264 40.2291 15.6448 40.1886 18.7736ZM22.3342 13.3603C25.4355 13.3837 28.0075 10.8653 28.0224 7.78958C28.0395 4.73515 25.4462 2.14229 22.3897 2.15292C19.2906 2.16356 16.7762 4.6841 16.7677 7.78746C16.7613 10.8142 19.282 13.3369 22.3342 13.3603ZM51.6888 52.6447C48.5469 52.6255 45.9835 55.1142 45.9899 58.1792C45.9963 61.2507 48.4573 63.7755 51.4924 63.818C54.6236 63.8627 57.2233 61.374 57.2361 58.3217C57.2489 55.1758 54.7965 52.6638 51.6888 52.6447ZM51.6461 13.3582C54.7004 13.3497 57.2318 10.8355 57.234 7.81298C57.2382 4.66283 54.6663 2.11463 51.5287 2.15718C48.485 2.19759 45.9878 4.72664 45.992 7.76406C45.9963 10.8504 48.5384 13.3688 51.6461 13.3582ZM13.3697 33.0184C13.3846 29.9576 10.9237 27.435 7.87787 27.386C4.72961 27.335 2.18753 29.8491 2.17472 33.0227C2.16192 36.058 4.6485 38.5573 7.72205 38.6019C10.8063 38.6487 13.3548 36.1282 13.3697 33.0184ZM71.8333 33.0503C71.8504 29.9321 69.3638 27.403 66.2625 27.3839C63.206 27.3648 60.6597 29.8491 60.6298 32.8823C60.5999 36.0559 63.1036 38.604 66.2497 38.6019C69.2998 38.5977 71.8162 36.0963 71.8333 33.0503ZM22.4132 63.8116C25.4611 63.8159 27.9819 61.3272 28.0139 58.2813C28.048 55.1886 25.5358 52.6617 22.4175 52.6425C19.2991 52.6255 16.7634 55.1269 16.7634 58.2196C16.7656 61.3209 19.2778 63.8074 22.4132 63.8116ZM39.2174 27.771C38.1395 27.7115 35.4822 27.7625 34.7458 27.6668C34.1311 27.586 33.796 27.7434 33.5228 28.3432C33.0703 29.3387 32.6093 30.3767 31.9241 31.2126C30.9295 32.425 31.0319 33.2864 31.7833 34.3478C32.0266 34.5924 32.7117 36.1601 32.8142 36.4876C33.5249 38.7593 34.6242 38.2446 36.9571 38.2892C39.4287 38.3382 40.4746 38.8976 41.2856 36.6131C41.5973 35.7325 43.0188 33.8097 43.0038 33.0078C42.9889 32.1506 41.9879 31.3551 41.6143 30.4511C40.7414 28.3326 40.513 27.5817 39.2174 27.771Z" fill="white"/>
</g>
<defs>
<clipPath id="clip0_1_2201">
<rect width="74" height="66" fill="white"/>
</clipPath>
</defs>
</svg>
