<svg width="74" height="52" viewBox="0 0 74 52" fill="none" xmlns="http://www.w3.org/2000/svg">
<g clip-path="url(#clip0_1_2225)">
<path d="M36.3184 3.69131C36.4898 3.43944 36.6612 3.18076 36.8361 2.92718C38.6581 0.302929 41.6433 -0.646703 44.6151 0.449288C47.5179 1.51975 49.3131 4.4197 49.066 7.51707C48.8727 9.9388 47.8491 11.9674 46.3598 13.8003C44.2672 16.3786 41.6921 18.4514 39.2868 20.6996C38.2194 21.6969 38.211 21.6884 38.7522 23.0669C39.1456 24.0658 39.554 25.0614 39.9288 26.0672C40.2129 26.828 39.9608 27.2024 39.1674 27.233C38.6632 27.2517 38.1572 27.2687 37.6546 27.2313C37.1403 27.1921 36.9722 27.3845 36.9789 27.9035C37.0041 29.4913 36.9873 31.0809 36.9873 32.6687C36.9873 35.618 37.0025 38.569 36.9756 41.5183C36.9705 42.1378 37.1235 42.3471 37.7689 42.3437C43.3713 42.3182 48.9736 42.325 54.5776 42.3369C55.0818 42.3386 55.3289 42.2518 55.3356 41.6511C55.3558 39.9305 55.3844 39.9322 53.6867 39.9118C52.5084 39.8982 52.2765 39.5561 52.7101 38.4516C53.0816 37.5037 53.4363 36.5489 53.8498 35.6197C54.0582 35.1517 53.9792 34.8641 53.606 34.5288C52.1807 33.249 50.7721 31.9505 49.3803 30.635C48.2323 29.5492 47.1683 28.38 46.3548 27.0049C45.3295 25.2708 44.7933 23.4004 45.2168 21.3922C45.7312 18.9484 47.2456 17.3742 49.6661 16.8364C52.1185 16.2918 54.1389 17.0576 55.6147 19.1628C55.7273 19.3228 55.8416 19.4811 55.9492 19.6325C56.2046 19.5934 56.2652 19.3807 56.3761 19.2258C58.1007 16.8296 60.7295 16.0348 63.3399 17.1257C65.8948 18.1945 67.3286 20.8579 66.8983 23.6812C66.6243 25.4733 65.8326 27.0083 64.7199 28.3971C62.8928 30.6809 60.6287 32.5104 58.4889 34.4659C57.9376 34.9696 57.8183 35.3729 58.146 36.0469C58.5646 36.908 58.8823 37.8219 59.2134 38.7239C59.4907 39.4761 59.2302 39.8522 58.4368 39.9067C58.2687 39.9186 58.1007 39.9084 57.9326 39.9101C56.5324 39.9305 56.7308 39.762 56.7291 41.132C56.7291 42.4645 56.5425 42.325 57.8687 42.325C62.7987 42.3301 67.7286 42.3267 72.6603 42.3284C72.9124 42.3284 73.1662 42.3233 73.415 42.3505C73.7697 42.3914 73.973 42.6262 73.9932 42.9717C74.0151 43.3325 73.7865 43.5622 73.4604 43.6388C73.22 43.695 72.9595 43.6831 72.709 43.6831C67.695 43.6865 62.6793 43.7069 57.6653 43.6695C56.8736 43.6643 56.6904 43.9077 56.7106 44.6667C56.761 46.6511 56.7224 48.6371 56.7308 50.6232C56.7324 51.1389 56.6955 51.6664 56.0618 51.692C55.3625 51.7209 55.3121 51.1644 55.3138 50.6181C55.3172 48.5487 55.3003 46.4775 55.3256 44.4081C55.3323 43.8601 55.1776 43.6763 54.6146 43.678C48.9837 43.6967 43.3528 43.6984 37.7219 43.6763C37.1184 43.6746 36.9705 43.8771 36.9789 44.454C37.0092 46.4384 36.9907 48.4244 36.9907 50.4105C36.9907 50.6096 36.989 50.807 36.9907 51.0061C36.9941 51.5456 36.8428 52.0221 36.2259 51.9966C35.6695 51.9728 35.5384 51.5252 35.5401 51.0146C35.5485 48.9163 35.4897 46.8145 35.5687 44.7195C35.6023 43.8158 35.3082 43.666 34.4963 43.6712C29.3697 43.7086 24.243 43.7137 19.1181 43.666C18.2356 43.6575 18.0491 43.9247 18.0743 44.7603C18.1348 46.7158 18.0894 48.6746 18.0961 50.6317C18.0978 51.1457 18.0575 51.6749 17.4204 51.6937C16.7178 51.7141 16.6859 51.1576 16.6876 50.6113C16.6943 48.5401 16.6724 46.4707 16.701 44.3995C16.7094 43.843 16.543 43.6712 15.99 43.678C13.6099 43.7052 11.2281 43.6899 8.84633 43.6882C8.5942 43.6882 8.33871 43.7035 8.09162 43.6609C7.72519 43.598 7.4613 43.3818 7.48147 42.9751C7.50164 42.5803 7.75209 42.3658 8.13868 42.3386C8.36224 42.3233 8.58579 42.3284 8.81103 42.3284C11.1928 42.3284 13.5729 42.3097 15.9547 42.3403C16.5497 42.3488 16.7111 42.1565 16.706 41.5694C16.6943 39.9271 16.7195 39.9271 15.0722 39.9101C13.8755 39.8982 13.6418 39.5646 14.0721 38.4669C14.4234 37.5717 14.7512 36.6663 15.1496 35.7933C15.4118 35.2215 15.3496 34.8556 14.8621 34.4148C13.0434 32.7742 11.171 31.1881 9.51699 29.3705C8.07817 27.7844 6.93519 26.0383 6.55531 23.8514C5.7838 19.4147 9.43127 15.8578 13.7713 16.8432C15.1916 17.1649 16.2186 18.0447 17.0288 19.2207C17.2355 19.5219 17.3801 19.8351 17.7129 19.3024C19.6543 16.205 23.1522 16.2646 25.1742 17.3333C27.7762 18.7101 28.9158 21.6356 28.0435 24.7619C27.551 26.5284 26.5324 27.9716 25.3306 29.3007C23.6043 31.2085 21.6327 32.8525 19.745 34.585C19.3047 34.99 19.1904 35.3185 19.4526 35.8835C19.8795 36.8042 20.2275 37.7657 20.5838 38.7188C20.8662 39.4744 20.6157 39.8454 19.8224 39.9067C19.7669 39.9118 19.7097 39.9084 19.6543 39.9101C18.0675 39.9577 18.1028 39.9594 18.0776 41.5541C18.0675 42.2263 18.3129 42.3437 18.908 42.3403C23.0547 42.3182 27.1997 42.3284 31.3464 42.3284C32.523 42.3284 33.6996 42.308 34.8762 42.3369C35.3653 42.3488 35.5653 42.2297 35.5636 41.6834C35.5435 37.0884 35.5452 32.4934 35.562 27.8984C35.5636 27.3793 35.4157 27.187 34.898 27.2279C34.3971 27.2687 33.8895 27.2398 33.3852 27.2364C32.2053 27.2279 32.0036 26.913 32.4524 25.7745C32.9281 24.5645 33.3802 23.3426 33.8945 22.1496C34.1013 21.6696 34.0038 21.3922 33.6407 21.0553C31.6573 19.2173 29.5899 17.4695 27.7056 15.5243C25.8836 13.642 24.3002 11.6049 23.6883 8.96194C22.5891 4.22059 25.6936 0.00340353 30.2773 0.020422C32.4994 0.0289313 34.2896 0.908787 35.5838 2.76721C35.7922 3.06673 36.0124 3.35775 36.2276 3.65217C36.241 3.66919 36.2747 3.67259 36.3184 3.69131ZM65.4981 22.9273C65.5334 20.6604 64.3367 18.9569 62.4289 18.351C60.4774 17.7316 58.7226 18.363 57.5342 20.1295C57.2838 20.5022 57.0669 20.9004 56.8484 21.2952C56.6551 21.6458 56.4854 22.01 55.9996 21.9981C55.5558 21.9879 55.3978 21.6526 55.2163 21.3293C54.9675 20.8868 54.7289 20.4358 54.4397 20.0206C53.2312 18.2813 51.2831 17.6924 49.3282 18.4532C47.5062 19.1628 46.3918 21.0587 46.5599 23.0464C46.7397 25.1721 47.8171 26.8245 49.1887 28.3239C51.2074 30.5312 53.5472 32.3947 55.6735 34.4863C56.045 34.8522 56.2332 34.6139 56.4938 34.374C57.9998 32.9767 59.5193 31.5948 61.0237 30.1976C62.1381 29.1629 63.2105 28.0839 64.0795 26.8211C64.925 25.589 65.4998 24.2582 65.4981 22.9273ZM9.45144 23.3919C9.38589 24.43 9.68172 25.5124 10.2095 26.5369C11.8786 29.7739 14.7663 31.862 17.328 34.2565C17.5431 34.4573 17.7146 34.4012 17.9062 34.2157C20.2459 31.9386 22.8647 29.9542 24.9305 27.3879C25.7525 26.3667 26.413 25.2452 26.6584 23.9331C26.9778 22.233 26.7795 20.6451 25.4364 19.4011C24.1674 18.2251 22.6664 17.9664 21.0561 18.4446C19.6442 18.865 18.9634 20.075 18.3146 21.2816C18.1079 21.6645 17.9163 22.0696 17.4271 22.0849C16.8909 22.1019 16.6825 21.6765 16.4657 21.2646C16.0438 20.4613 15.5799 19.6836 14.884 19.0845C13.857 18.1996 12.8838 18.0634 11.9021 18.7118C10.2868 19.7823 9.39429 21.2646 9.45144 23.3919ZM57.662 38.4209C56.9543 37.6892 57.3611 36.2477 55.8248 36.6136C55.0667 35.9907 55.0146 36.7072 54.828 37.1565C54.7087 37.4407 54.6095 37.7351 54.4851 38.0176C54.3557 38.3137 54.4448 38.4261 54.7557 38.4244C55.6332 38.4158 56.5139 38.4209 57.662 38.4209Z" fill="white"/>
<path d="M2.67768 42.3301C3.26431 42.3301 3.85093 42.3318 4.43587 42.3284C4.89138 42.3267 5.22755 42.5207 5.22924 42.9989C5.23092 43.4805 4.87289 43.6797 4.43419 43.6831C3.20548 43.6916 1.97676 43.6916 0.749735 43.6763C0.300944 43.6712 -0.0217814 43.4312 6.97756e-05 42.9513C0.0202401 42.5173 0.327838 42.3284 0.751416 42.3301C1.39351 42.3335 2.0356 42.3301 2.67768 42.3301Z" fill="white"/>
<path d="M60.7718 25.2112C61.0794 25.252 61.2962 25.3627 61.4357 25.6009C61.5971 25.8766 61.592 26.1812 61.387 26.394C60.2742 27.5478 59.1514 28.6915 58.0051 29.8113C57.7126 30.0972 57.3243 30.07 57.0285 29.7551C56.7629 29.4726 56.7327 29.0897 56.9848 28.8276C58.1127 27.6499 59.2708 26.5029 60.4272 25.3541C60.518 25.2657 60.6793 25.2486 60.7718 25.2112Z" fill="white"/>
<path d="M18.9751 30.0649C18.2389 30.0291 17.8641 29.2633 18.328 28.7527C19.4037 27.5717 20.5467 26.4535 21.6897 25.3371C22.0124 25.0206 22.4192 25.0716 22.7386 25.4018C23.0546 25.7286 23.1067 26.1353 22.7924 26.4655C21.688 27.621 20.5602 28.7527 19.4256 29.8777C19.2995 30.0019 19.076 30.024 18.9751 30.0649Z" fill="white"/>
</g>
<defs>
<clipPath id="clip0_1_2225">
<rect width="74" height="52" fill="white"/>
</clipPath>
</defs>
</svg>
