<svg width="65" height="60" viewBox="0 0 65 60" fill="none" xmlns="http://www.w3.org/2000/svg">
<path d="M64.1244 14.919C64.2502 15.4278 64.4537 16.2507 64.5787 16.7587C64.6832 17.5206 64.8589 18.2723 64.9127 19.0422C64.9286 19.2646 64.9531 19.4869 64.9737 19.7093C64.9824 20.2386 64.9911 20.7672 64.9998 21.2965C64.9816 21.8227 64.9634 22.3497 64.9452 22.8758C64.7711 23.7446 64.7069 24.6324 64.4877 25.4933C64.4426 25.6698 64.4212 25.8525 64.3888 26.0322C64.2233 26.5623 64.0579 27.0917 63.8925 27.6218C63.7991 27.8378 63.6946 28.0491 63.6139 28.269C63.2981 29.1315 62.8247 29.9228 62.4796 30.7718C61.8314 31.8241 61.1657 32.8654 60.4439 33.8687C60.1249 34.2296 59.9421 34.6711 59.9983 35.13C60.0814 35.8065 60.0038 36.4593 59.9025 37.1176C58.8411 40.5833 56.0186 41.0114 55.4677 41.0945C55.2857 41.115 55.1044 41.1388 54.9224 41.1562C54.2836 41.2187 54.2836 41.2179 54.2108 41.8659C53.9979 42.9903 52.46 46.8912 49.138 47.0384C48.9267 47.1349 48.5674 46.9236 48.5072 47.3303C48.4652 47.6152 48.4455 47.9032 48.4162 48.1904C47.0556 52.6112 43.3252 52.3786 42.7949 52.4062C42.4387 52.3501 42.0833 52.2836 41.7248 52.2425C41.5451 52.2219 41.3338 52.1356 41.2 52.3572C40.9444 52.4798 40.5573 53.0171 40.5154 53.0661C39.3012 54.4793 36.2444 57.7219 36.1692 57.7994C35.3492 58.6484 34.4184 59.3321 33.2929 59.7246C32.7705 59.8322 32.2497 59.9461 31.717 59.9928C28.9966 60.0956 27.427 58.5804 26.8849 57.9442C26.7566 57.7939 26.6482 57.6269 26.5611 57.4489C26.2976 56.9109 26.0387 56.3696 25.7601 55.8395C25.6153 55.5634 25.457 55.2817 25.119 55.1788C24.6797 55.0451 21.2865 54.7634 19.8452 51.3578C19.5991 50.7676 19.3553 50.1765 19.2278 49.5451C19.1788 49.3029 18.9896 49.2088 18.7862 49.1455C18.3508 49.0094 17.9108 48.886 17.4723 48.7578C16.9618 48.5204 16.4473 48.2941 15.9906 47.9554C14.9782 47.2045 14.3102 46.2084 13.8939 45.0318C13.6944 44.4003 13.4293 43.8211 12.7446 43.5719C12.6314 43.4516 11.5542 43.0196 11.1584 42.8637C10.9178 42.7055 10.6859 42.5338 10.4366 42.389C8.81954 41.4497 7.95284 38.9415 7.87052 38.7049C7.77238 38.1747 7.67502 37.6446 7.57687 37.1145C7.39324 36.4569 6.79091 36.1341 6.3999 35.6427C6.3635 35.6048 6.32709 35.5676 6.28989 35.5296C6.16799 35.3785 6.05085 35.2218 5.92263 35.0754C5.17386 34.2201 3.05421 30.9474 2.92678 30.7773C2.6735 30.2511 2.42022 29.7249 2.16614 29.198C2.0023 28.8182 1.88753 28.4154 1.65008 28.0681C1.64612 27.9771 1.62792 27.8908 1.59705 27.8093C1.40313 27.2444 1.21 26.6818 1.01609 26.1168C0.870448 25.5637 0.724811 25.0099 0.579174 24.4568C0.512688 23.9243 0.426414 23.3957 0.293441 22.8758C0.28236 22.5522 0.254657 22.2318 0.143846 21.924C0.131974 21.7143 0.120101 21.5054 0.108228 21.2957C0.0797343 20.7664 0.0512401 20.237 0.0227459 19.7077C-0.0571962 19.1815 0.0789428 18.6569 0.036993 18.1315C0.13514 17.0696 0.263364 16.0117 0.453325 14.9625C0.600545 14.4363 0.748556 13.9101 0.895776 13.384C1.09049 12.8554 1.2852 12.3269 1.47991 11.7975C1.57964 11.6211 1.68016 11.4454 1.71657 11.2428C1.83846 11.0719 1.94373 10.8923 2.03396 10.7056C2.31415 10.2055 2.77085 9.39288 3.05105 8.89281C3.10962 8.80498 3.16819 8.71636 3.22676 8.62774C3.62251 8.10235 4.01906 7.57695 4.41481 7.05156C4.58577 6.92654 4.68867 6.74534 4.81135 6.58076C5.10975 6.30066 5.40973 6.02293 5.67251 5.7088C5.85772 5.51969 6.1577 5.21348 6.34292 5.02516C6.75767 4.67463 7.17162 4.32332 7.58637 3.97279C7.74863 3.85173 8.01299 3.6555 8.17525 3.53444C9.15197 2.90064 10.1445 2.29375 11.1861 1.76994C11.7133 1.57371 12.5657 1.25721 13.0929 1.06098C13.3691 0.987389 13.6398 0.895604 13.9065 0.791949C13.992 0.786411 14.0736 0.769794 14.1519 0.741309C14.6775 0.619456 15.5307 0.421642 16.0571 0.299789C16.5288 0.23095 17.0013 0.162111 17.4731 0.093272C17.9203 0.0616219 18.3651 0.0299717 18.8123 -0.00167847C19.3727 0.000695295 19.9339 0.0022778 20.4942 0.00465157C21.0697 0.0513356 21.6419 0.0980195 22.2174 0.145495C22.7485 0.231741 23.278 0.316406 23.8083 0.401861C24.8776 0.652689 25.9232 0.981059 26.9577 1.34741C27.4357 1.57292 28.2098 1.93848 28.6887 2.16398C28.809 2.24153 28.9412 2.29454 29.086 2.32144C29.4034 2.58335 29.7707 2.76138 30.1364 2.94179C30.9524 3.51149 31.7985 4.03846 32.5734 4.66514C32.8544 4.89223 33.0839 4.88827 33.304 4.60026C33.6467 4.36367 33.9886 4.12629 34.3313 3.88971C34.5332 3.78447 34.7366 3.68003 34.8988 3.51465C35.9207 2.95919 36.9655 2.45121 38.0348 1.99228C38.5192 1.83482 39.3044 1.58004 39.7888 1.42258C40.2668 1.31576 40.7441 1.20894 41.2222 1.10212L42.7981 0.867119C42.9192 0.864745 43.045 0.895604 43.1614 0.86158C43.4693 0.829138 43.9426 0.780081 44.2505 0.747639C44.8196 0.815687 45.3887 0.808566 45.9586 0.770585C46.2633 0.796697 46.7509 0.837842 47.0556 0.863162C47.2163 0.90589 47.3864 0.865536 47.5511 0.879779C47.9745 0.973938 48.4011 1.04357 48.8317 1.095C49.3517 1.2129 50.1923 1.40438 50.7123 1.52228C51.2411 1.70347 51.7706 1.88546 52.2993 2.06666C53.3702 2.56436 54.4411 3.05968 55.4629 3.65471C55.5928 3.77102 55.7257 3.88259 55.907 3.91028C56.2481 4.22362 56.6154 4.49977 57.0293 4.71103C57.3103 5.01092 57.634 5.257 57.9736 5.48488C58.1287 5.67636 58.2981 5.85044 58.5245 5.95884C58.8245 6.37504 59.2123 6.70578 59.5843 7.05156C59.7648 7.26995 59.9191 7.51286 60.1352 7.70039C60.3909 8.00265 60.6426 8.30016 60.899 8.60242C61.146 9.00121 61.385 9.40475 61.7111 9.74657C61.7617 9.89849 61.8377 10.0346 61.9406 10.1541C62.2517 10.689 62.5517 11.2049 62.8635 11.7397C62.9585 12.0301 63.0677 12.3134 63.2126 12.5808C63.3186 12.8151 63.492 13.1941 63.598 13.4283C63.7722 13.9244 63.9479 14.4221 64.1244 14.919ZM2.869 19.7061C2.79618 20.2418 2.88879 20.7695 2.94261 21.2997C3.00751 22.371 3.18244 23.4234 3.47371 24.4568C3.58927 24.9972 3.73016 25.5305 3.94624 26.0409C4.04122 26.465 4.19319 26.8741 4.38077 27.2602C4.71796 27.9525 4.93166 28.7098 5.43427 29.3182C5.45168 29.5382 5.58545 29.706 5.6923 29.8848C6.54712 31.3209 7.52543 32.6629 8.65569 33.8996C9.03483 34.315 8.99763 34.4384 9.49707 33.8988C9.52318 33.8703 15.0431 28.5713 15.4144 28.2595C16.0214 27.75 16.7631 27.5158 17.4913 27.2539C18.0129 27.1882 18.5345 27.1273 19.0616 27.1399C19.5991 27.1961 20.1222 27.3243 20.6423 27.4651C20.7736 27.5181 20.9058 27.5704 21.0372 27.6234C21.4314 27.8774 21.8248 28.1306 22.2189 28.3846C22.5023 28.6599 22.7857 28.9361 23.0698 29.2114C23.3152 29.5817 23.5605 29.952 23.8059 30.3231C23.8415 30.4964 23.9262 30.6475 24.0236 30.7931C24.1708 31.3114 24.337 31.8249 24.3987 32.363C24.3481 32.6629 24.4605 32.7998 24.7771 32.7665C24.9821 32.7452 25.1895 32.7515 25.396 32.746C25.9311 32.7784 26.4495 32.9058 26.9695 33.0276C27.3423 33.2413 27.7381 33.409 28.0879 33.6678C28.7631 34.1686 29.2214 34.8459 29.6694 35.5343C29.8277 35.9118 29.9234 36.3153 30.1356 36.6714C30.1221 36.828 30.1387 36.9784 30.2195 37.1168C30.2495 37.4951 30.2852 37.8725 30.3081 38.2507C30.3168 38.3947 30.3714 38.4572 30.5187 38.4723C30.9215 38.515 31.3228 38.5712 31.7249 38.6226C31.8231 38.6788 31.926 38.7128 32.0407 38.6986C32.461 38.8513 32.8821 39.004 33.3024 39.1567C33.9293 39.4946 34.4833 39.9147 34.9099 40.4971C35.2218 40.922 35.4236 41.4015 35.65 41.8699C35.7743 42.3937 35.8993 42.9167 36.0236 43.4405C36.0339 43.7317 36.1914 43.8789 36.4755 43.9018C36.9702 44.019 37.4657 44.1361 37.9604 44.2532C39.8948 45.0405 41.0631 46.4829 41.6061 48.4777C41.891 49.5245 41.91 49.5229 43.0118 49.5316C43.4811 49.5356 44.9367 49.5316 45.4045 48.1968C45.6396 47.6904 45.7053 47.1594 45.6356 46.6079C45.5937 46.2392 45.418 45.9401 45.1623 45.6798C43.9465 44.4407 42.7427 43.1897 41.5119 41.9656C40.9444 41.4015 40.4552 40.7598 39.8204 40.2629C39.7927 40.1814 39.7397 40.1268 39.6574 40.1007C39.5861 40.0081 39.5236 39.9068 39.4421 39.8237C37.2844 37.6098 35.126 35.3967 32.9636 33.1875C32.7222 32.9406 32.5077 32.6787 32.3486 32.3725C32.1634 31.7593 32.4096 31.2655 32.7816 30.8058C32.9565 30.7203 33.1306 30.6341 33.3055 30.5486C34.0266 30.4212 34.5435 30.7821 35.0105 31.2616C36.9322 33.2326 38.8548 35.2044 40.7766 37.1754C42.8923 39.3442 45.0111 41.5107 47.1205 43.685C47.7078 44.2903 48.7613 44.5792 49.442 44.3465C50.4638 44.0063 51.3265 42.4895 51.3566 41.9506C51.4722 41.1776 51.2086 40.524 50.6767 39.9875C48.0133 37.302 45.3253 34.6402 42.6754 31.9412C41.2538 30.4933 39.8236 29.0548 38.3902 27.6186C38.1432 27.0996 38.1068 26.575 38.3538 26.0448C38.6751 25.6144 39.1081 25.3992 39.6423 25.381C40.308 25.445 40.6974 25.9301 41.1232 26.3558C42.6042 27.8338 44.0827 29.3143 45.562 30.7939C45.6736 30.9474 45.782 31.1057 45.9593 31.1943C46.8775 32.1185 52.1133 37.4595 52.2969 37.5916C52.6903 38.1249 53.3441 38.3821 53.8807 38.3844C54.4253 38.4177 54.9611 38.39 55.4637 38.1431C56.9668 37.3795 57.2985 36.0613 57.2383 35.6839C57.118 34.9314 56.6494 34.4155 56.0962 33.9518C55.9109 33.7152 39.9621 17.5127 39.6384 17.2548C39.5624 17.1219 39.4611 17.0316 39.3495 17.2034C39.1199 17.5547 32.347 23.9702 31.8713 24.3713C31.7906 24.3824 31.7344 24.422 31.7146 24.505C27.5078 27.2499 24.341 26.4135 23.8138 26.3463C23.6302 26.2838 23.4481 26.2165 23.2629 26.1603C22.3028 25.866 21.471 25.3287 20.6415 24.7867C20.5045 24.6783 20.3684 24.5707 20.2315 24.4623C19.7985 24.0746 18.6912 22.9368 18.4308 21.2933C18.4442 20.7569 18.5313 20.2307 18.6413 19.7069C18.9833 18.6846 19.5911 17.8451 20.3629 17.0997C22.3788 15.1524 24.3782 13.1885 26.3846 11.231C27.2885 10.3495 28.1995 9.47517 29.0947 8.58501C29.4573 8.22499 29.8601 7.90216 30.1569 7.47884C30.3477 7.40129 30.4482 7.21931 30.6002 7.09824C30.8099 6.93208 30.7553 6.79836 30.5693 6.66859C29.4208 5.86864 28.2779 5.05918 26.979 4.50926C25.973 3.97675 24.9259 3.55263 23.8083 3.31842C23.3001 3.10478 22.7595 3.03595 22.2213 2.95366C21.7052 2.80253 21.1639 2.90222 20.6438 2.78987C20.1151 2.78749 19.5872 2.78512 19.0585 2.78274C18.5242 2.76455 17.9963 2.81281 17.4754 2.93625C16.9301 2.95366 16.4077 3.09133 15.8845 3.2298C14.7827 3.47193 13.7221 3.82878 12.7153 4.33993C11.5771 4.75692 10.5474 5.37331 9.55643 6.06012C9.14168 6.33785 8.72772 6.61637 8.37154 6.97006C8.23936 7.084 8.10718 7.19715 7.97421 7.3103C7.50247 7.7083 7.04815 8.12371 6.68643 8.62932C6.57087 8.72427 6.45927 8.8216 6.39832 8.96323C6.02394 9.33354 5.7295 9.76398 5.46118 10.2142C4.79869 11.193 4.24543 12.2248 3.91695 13.3674C3.68108 13.8421 3.54811 14.3493 3.44522 14.866C3.11832 15.9302 2.97823 17.0237 2.92757 18.1323C2.90224 18.6569 2.79618 19.1783 2.869 19.7061ZM20.6383 30.7923C20.2117 30.3326 19.0213 29.7265 18.1205 29.933C17.3401 30.1119 16.9689 30.3516 16.4267 30.9981C16.2423 31.218 11.3001 35.9458 11.0603 36.2251C10.7635 36.4292 10.545 36.7117 10.4991 37.1145C10.4817 37.1754 10.4445 37.2379 10.45 37.2965C10.5965 38.8869 11.874 40.3396 13.4396 40.7503C13.992 40.8951 14.4123 40.7321 14.797 40.3602C15.6946 39.493 16.6119 38.6447 17.4913 37.7593C18.5281 36.7157 19.6505 35.7583 20.6415 34.6679C20.8892 34.459 21.7876 33.4209 21.509 32.3693C21.4108 31.7379 21.1132 31.2157 20.6383 30.7923ZM39.6289 13.6625C39.917 13.7092 40.1766 13.8184 40.3966 14.0146C40.6673 14.2559 57.7987 31.5614 58.0884 32.0235C58.1564 32.1327 58.2411 32.1074 58.3076 32.0148C58.94 31.1247 59.5709 30.2337 60.0006 29.2209C60.1352 29.0967 60.2049 28.9408 60.231 28.762C60.4835 28.4178 60.6623 28.038 60.77 27.625C61.028 27.1225 61.2235 26.5979 61.3438 26.0456C61.5512 25.5416 61.6747 25.0162 61.7507 24.4781C62.0317 23.4353 62.1464 22.3718 62.1219 21.2933C62.2374 20.7632 62.186 20.2354 62.0997 19.7085C62.0507 19.5067 62.0459 19.3025 62.0348 19.0952C61.9889 18.2233 61.8504 17.3648 61.5852 16.53C61.4903 15.9888 61.3478 15.4618 61.1127 14.9625C60.7676 13.8279 60.2452 12.7779 59.597 11.788C59.339 11.2721 59.016 10.8005 58.6337 10.3685C58.587 10.3139 58.5403 10.2585 58.4928 10.2039C58.3266 9.81937 58.0084 9.55034 57.7377 9.25204C57.0499 8.49481 56.3534 7.74074 55.4756 7.18845C55.4202 7.14176 55.3648 7.09508 55.3094 7.04919C54.878 6.66701 54.4079 6.3418 53.891 6.08465C52.9016 5.43819 51.8497 4.9223 50.7155 4.57968C50.2192 4.32648 49.6826 4.20779 49.1396 4.10968C48.6497 3.93718 48.1423 3.84935 47.6255 3.81454C46.5546 3.55422 45.4678 3.54472 44.3771 3.61277C43.3023 3.60961 42.2472 3.75836 41.2095 4.03134C40.6626 4.09227 40.1426 4.25527 39.6321 4.45308C39.0796 4.59472 38.5548 4.80835 38.0522 5.07659C37.7839 5.1573 37.5314 5.26886 37.3193 5.45797C37.0027 5.56084 36.7154 5.71671 36.4629 5.93352C35.8764 6.21995 35.3508 6.59421 34.8719 7.03573C34.2277 7.43453 33.7219 7.99632 33.1821 8.51063C31.7233 9.90007 30.301 11.3267 28.8628 12.7375C27.1421 14.4253 25.4182 16.1098 23.6983 17.7984C23.0888 18.3974 22.4524 18.975 21.8944 19.619C21.4971 20.078 21.1092 20.601 21.3594 21.2949C21.4591 21.7602 21.7986 22.0442 22.1406 22.3267C23.054 23.1876 24.1526 23.5927 25.3929 23.6529C25.9224 23.6932 26.4487 23.6853 26.968 23.5619C28.1837 23.3617 29.2697 22.8727 30.2218 22.0893C30.5646 21.8805 37.9477 14.7299 38.0514 14.5653C38.5334 14.1879 38.9355 13.6712 39.6289 13.6625ZM36.4716 46.7804C35.8027 46.6942 35.3951 46.854 34.8799 47.4459C34.587 47.6429 29.9512 52.5352 28.6555 53.8978C28.2241 54.3519 28.2011 54.5387 28.4853 55.1511C29.6187 57.5051 31.1851 57.1466 31.721 57.2123C32.8259 57.0074 33.6229 56.323 34.3693 55.5412C35.7141 54.1336 37.0731 52.7394 38.4298 51.3436C38.8588 50.9029 39.0835 50.3965 38.9973 49.7737C38.8429 47.3129 37.1404 46.9308 36.4716 46.7804ZM33.0816 45.0318C33.3522 44.5119 33.2296 43.9778 33.1409 43.4453C33.0641 42.6469 32.7072 42.0329 31.9655 41.6784C31.3917 41.4046 30.7759 41.3089 30.1474 41.278C29.6132 41.2353 29.1913 41.4331 28.8771 41.8652C28.7425 41.9403 22.716 47.6532 22.2189 48.1897C21.7749 48.7419 22.1065 49.2586 22.291 49.7824C22.8506 51.1925 23.9824 51.8864 25.381 52.2448C25.6905 52.4181 26.3268 52.1538 26.6031 51.8911C27.4041 51.1252 32.7752 45.6687 33.0816 45.0318ZM17.4462 41.8256C16.8319 42.4626 16.3143 42.8107 16.3847 43.4429C16.6531 44.9249 17.2689 46.0572 18.6081 46.2606C19.011 46.312 20.0265 46.3808 20.6518 45.6798C20.9217 45.5223 26.7962 39.9479 26.9735 39.7288C27.6225 39.0356 27.4872 37.9793 27.431 37.624C27.2529 36.4957 26.4511 35.706 25.3905 35.5929C24.8262 35.452 24.3006 35.5509 23.8067 35.8477C23.1656 36.1096 17.8364 41.358 17.4462 41.8256Z" fill="white"/>
</svg>
