<svg width="64" height="62" viewBox="0 0 64 62" fill="none" xmlns="http://www.w3.org/2000/svg">
<path d="M9.31736 35.5888C9.31736 28.7848 9.31631 21.9817 9.31736 15.1777C9.31736 11.6387 11.6945 9.27033 15.257 9.26929C23.4001 9.26721 31.5421 9.2745 39.6852 9.262C40.1968 9.26096 40.563 9.40989 40.925 9.77233C44.6989 13.5519 48.4853 17.3179 52.2791 21.0767C52.5992 21.3943 52.7478 21.7151 52.7405 22.1723C52.7143 23.7335 52.7363 25.2968 52.7279 26.858C52.7248 27.4392 52.323 27.7579 51.8668 27.5621C51.5456 27.4246 51.4839 27.1507 51.486 26.832C51.4923 25.5301 51.4714 24.2282 51.4975 22.9264C51.5059 22.5139 51.3814 22.4015 50.9733 22.4056C49.0901 22.4254 47.2068 22.4202 45.3246 22.4129C41.9284 22.3983 39.546 20.0112 39.5408 16.6253C39.5377 14.7507 39.5303 12.876 39.5481 11.0013C39.5513 10.6274 39.4717 10.4951 39.0627 10.4962C31.0242 10.5076 22.9868 10.4962 14.9484 10.5087C12.4813 10.5128 10.5697 12.4208 10.5687 14.8808C10.5603 28.7139 10.5603 42.5481 10.5687 56.3812C10.5708 58.9203 12.5116 60.7523 15.1597 60.7544C23.0234 60.7586 30.8871 60.7554 38.7509 60.7565C41.4356 60.7565 44.1213 60.7586 46.8061 60.7565C49.6582 60.7544 51.485 58.9391 51.4891 56.1062C51.4902 55.5511 51.4787 54.9949 51.4965 54.4398C51.508 54.0774 51.7235 53.8493 52.0866 53.8347C52.4517 53.8201 52.7154 54.0357 52.7154 54.393C52.7175 55.5344 52.8472 56.6842 52.549 57.8122C51.9275 60.1566 49.9302 61.8646 47.4997 61.95C45.0787 62.0344 42.6534 61.9875 40.2303 61.9886C31.878 61.9906 23.5267 61.9823 15.1743 61.9917C13.5024 61.9938 12.0554 61.4793 10.8899 60.2753C9.81015 59.1599 9.31736 57.808 9.31841 56.2614C9.3205 49.3698 9.31736 42.4793 9.31736 35.5888ZM50.4251 21.1902C47.1921 17.9741 43.9864 14.785 40.7838 11.5991C40.7838 13.127 40.7817 14.7007 40.7848 16.2744C40.7859 16.6555 40.7702 17.0399 40.8151 17.4169C41.0338 19.2645 42.5729 20.9017 44.4091 21.1006C46.4148 21.3183 48.434 21.1413 50.4251 21.1902Z" fill="white"/>
<path d="M54.7333 37.4135C54.7281 39.5059 54.3075 41.2608 53.46 42.9126C53.3366 43.1532 53.2236 43.3615 53.436 43.6198C53.5155 43.7166 53.573 43.903 53.5354 44.0124C53.3408 44.5769 53.7331 44.8591 54.0407 45.2091C54.3692 45.583 54.7281 45.8079 55.2492 45.81C55.6425 45.811 55.9721 46.0371 56.2525 46.3151C58.5365 48.5825 60.8372 50.8342 63.1003 53.1223C64.3339 54.369 64.2816 56.3634 63.0532 57.5841C61.7914 58.837 59.7983 58.8932 58.5323 57.6497C56.2483 55.4074 53.9968 53.1317 51.7306 50.8706C51.3707 50.5113 51.1813 50.0874 51.1541 49.5729C51.1195 48.9084 50.1884 48.1055 49.5365 48.1367C49.4162 48.1429 49.2624 48.1586 49.1798 48.0961C48.7152 47.7461 48.3438 48.0461 47.9462 48.2325C39.8795 52.0079 30.6033 45.7048 31.2008 36.8553C31.5983 30.9719 36.4237 26.1758 42.2096 25.9134C48.3846 25.6342 53.6243 29.7877 54.5879 35.7336C54.6904 36.3668 54.7522 37.0063 54.7333 37.4135ZM53.482 37.6312C53.4852 31.8155 48.7948 27.135 42.9639 27.1361C37.1289 27.1371 32.428 31.8134 32.427 37.6197C32.4259 43.3885 37.1352 48.0867 42.9273 48.095C48.7655 48.1034 53.4789 43.4312 53.482 37.6312ZM50.2187 46.8505C50.8747 47.0806 51.2085 47.568 51.6427 47.9336C52.1219 48.3367 52.3908 48.8407 52.396 49.4708C52.3981 49.6937 52.4786 49.8697 52.6345 50.0249C54.9007 52.2818 57.1575 54.5492 59.4353 56.7946C60.0452 57.3956 60.9712 57.4674 61.714 57.054C62.9256 56.3801 63.1024 54.8668 62.0687 53.8337C60.0034 51.7694 57.9171 49.7239 55.857 47.6545C55.4772 47.2723 55.11 46.9536 54.5325 46.9546C54.2311 46.9556 53.9434 46.8234 53.7268 46.6192C53.1786 46.0995 52.5885 45.61 52.2244 44.8654C51.6343 45.5778 51.0055 46.2214 50.2187 46.8505Z" fill="white"/>
<path d="M1.24539 26.2164C1.24539 33.0559 1.24539 39.8943 1.24539 46.7338C1.24539 46.8723 1.25271 47.0119 1.2412 47.1504C1.21191 47.517 0.995331 47.7409 0.641693 47.7492C0.254575 47.7576 0.0338136 47.5118 0.0118421 47.1285C-0.00699068 46.7994 0.00556449 46.4692 0.00556449 46.1391C0.00556449 32.6872 0.00451823 19.2342 0.00661076 5.78233C0.00556449 2.41935 2.43394 -3.45244e-05 5.80815 -3.45244e-05C14.0391 -0.00107602 22.269 0.00204846 30.5 0.00308995C30.5868 0.00308995 30.6747 -3.45245e-05 30.7616 0.00204846C31.1748 0.0114219 31.4469 0.223886 31.4489 0.627985C31.4521 1.03937 31.1769 1.2383 30.7595 1.2383C29.574 1.23622 28.3886 1.2383 27.2022 1.2383C20.1054 1.2383 13.0075 1.2383 5.91068 1.23726C3.09623 1.23726 1.24957 3.06403 1.24853 5.85523C1.24748 12.6426 1.24853 19.429 1.24853 26.2164C1.24748 26.2164 1.24643 26.2164 1.24539 26.2164Z" fill="white"/>
<path d="M4.66538 30.6688C4.66538 23.9002 4.66015 17.1305 4.66748 10.3618C4.67062 7.43521 6.56749 5.18871 9.42589 4.70754C9.75023 4.65339 10.085 4.64922 10.4157 4.64818C18.6456 4.64505 26.8755 4.6461 35.1054 4.6461C35.2446 4.6461 35.3848 4.64089 35.5239 4.65339C35.865 4.68463 36.0732 4.87106 36.0994 5.21371C36.1276 5.58552 35.9194 5.80319 35.5679 5.87089C35.3994 5.90318 35.2205 5.88651 35.0468 5.88651C26.887 5.88755 18.7261 5.92713 10.5663 5.86256C8.13689 5.84381 5.87696 7.6258 5.88428 10.5451C5.91986 24.0658 5.89998 37.5864 5.89998 51.106C5.89998 51.3143 5.90416 51.5226 5.89579 51.7309C5.88114 52.1131 5.70223 52.3672 5.29628 52.3745C4.89347 52.3808 4.69677 52.1433 4.67271 51.7559C4.66225 51.583 4.66538 51.4091 4.66538 51.2351C4.66538 44.38 4.66538 37.5249 4.66538 30.6688Z" fill="white"/>
<path d="M27.5494 50.9196C24.4838 50.9196 21.4183 50.9196 18.3527 50.9185C18.111 50.9185 17.8631 50.9498 17.6601 50.7633C17.3232 50.4551 17.4174 49.901 17.8547 49.7458C18.0284 49.6844 18.2303 49.6844 18.4197 49.6833C24.4985 49.6802 30.5783 49.6812 36.6571 49.6812C36.7617 49.6812 36.8664 49.6781 36.971 49.6833C37.3916 49.7041 37.6919 49.8791 37.672 50.3405C37.6532 50.7717 37.3602 50.9206 36.9574 50.9196C35.7029 50.9164 34.4495 50.9196 33.195 50.9196C31.3118 50.9206 29.4306 50.9206 27.5494 50.9196Z" fill="white"/>
<path d="M25.2976 27.6756C27.5795 27.6766 29.8604 27.6756 32.1423 27.6766C32.2992 27.6766 32.4614 27.661 32.611 27.6943C32.9165 27.763 33.0954 27.9682 33.0996 28.2848C33.1038 28.6014 32.9301 28.8097 32.6288 28.891C32.498 28.9264 32.3526 28.9129 32.2134 28.9129C27.5983 28.9139 22.9833 28.9149 18.3672 28.9149C18.3326 28.9149 18.2971 28.9139 18.2625 28.9149C17.8273 28.9295 17.4946 28.7962 17.4653 28.3025C17.4412 27.9047 17.7268 27.6797 18.2437 27.6776C19.3057 27.6724 20.3687 27.6745 21.4306 27.6745C22.7207 27.6745 24.0097 27.6745 25.2976 27.6756Z" fill="white"/>
<path d="M24.012 42.3575C25.9277 42.3575 27.8424 42.3564 29.7581 42.3585C30.3147 42.3596 30.5993 42.5772 30.593 42.9844C30.5867 43.3844 30.298 43.5958 29.7351 43.5958C25.9392 43.5979 22.1434 43.5968 18.3475 43.5958C17.7449 43.5958 17.4572 43.3844 17.4645 42.9605C17.4718 42.5429 17.747 42.3585 18.3716 42.3575C20.2507 42.3564 22.1319 42.3564 24.012 42.3575Z" fill="white"/>
<path d="M23.5274 36.2408C21.8021 36.2408 20.0768 36.2418 18.3504 36.2397C17.7311 36.2387 17.4528 36.0398 17.4611 35.619C17.4695 35.218 17.7499 35.0077 18.3212 35.0077C21.824 35.0045 25.328 35.0045 28.8309 35.0087C29.4785 35.0097 29.8123 35.3722 29.6292 35.8429C29.5005 36.1741 29.2316 36.2377 28.9114 36.2366C27.116 36.2325 25.3207 36.2345 23.5263 36.2345C23.5274 36.2366 23.5274 36.2387 23.5274 36.2408Z" fill="white"/>
<path d="M22.9081 21.5714C21.3418 21.5714 19.7756 21.5766 18.2104 21.5683C17.704 21.5662 17.4257 21.311 17.4675 20.91C17.5125 20.4768 17.8065 20.3445 18.2009 20.3445C19.5925 20.3456 20.985 20.3435 22.3766 20.3435C24.1165 20.3435 25.8565 20.3435 27.5964 20.3445C27.8213 20.3445 28.0536 20.3268 28.2388 20.4966C28.4376 20.6788 28.5056 20.9017 28.4167 21.1558C28.3194 21.4339 28.1007 21.5651 27.814 21.5683C27.1528 21.5756 26.4915 21.5735 25.8303 21.5745C24.8562 21.5756 23.8811 21.5745 22.907 21.5745C22.9081 21.5735 22.9081 21.5724 22.9081 21.5714Z" fill="white"/>
<path d="M39.3366 38.4581C39.3334 38.1884 39.4558 37.9894 39.7017 37.8801C39.9968 37.7489 40.2468 37.8468 40.4529 38.0696C41.02 38.68 41.6028 39.2788 42.1416 39.9141C42.4178 40.2401 42.5695 40.212 42.8436 39.9089C44.4894 38.0957 46.1561 36.3012 47.8155 34.5015C47.9327 34.3744 48.0446 34.237 48.1817 34.1328C48.4537 33.9276 48.7425 33.9422 48.9873 34.1724C49.2164 34.3869 49.2468 34.6577 49.0783 34.9285C49.0061 35.0452 48.9078 35.1472 48.8136 35.2482C46.9178 37.3041 45.023 39.359 43.1251 41.4128C42.625 41.9544 42.3571 41.9555 41.8445 41.4066C41.0974 40.6078 40.3588 39.8006 39.617 38.9955C39.4768 38.8424 39.3313 38.6883 39.3366 38.4581Z" fill="white"/>
</svg>
