<svg width="78" height="69" viewBox="0 0 78 69" fill="none" xmlns="http://www.w3.org/2000/svg">
<path d="M37.5536 28.6977C36.8251 28.6913 36.4111 28.4734 36.0553 28.0695C35.7383 27.7105 35.3566 27.4079 34.9983 27.0848C33.5492 25.7771 32.0988 24.4706 30.6484 23.1628C30.1089 22.6756 29.9678 22.1256 30.2382 21.5743C30.5138 21.0114 31.1996 20.6806 31.853 20.7896C32.1919 20.846 32.4779 20.996 32.7315 21.2242C34.1922 22.5461 35.6555 23.8654 37.1176 25.186C37.1538 25.2181 37.1939 25.2463 37.2237 25.2834C37.3168 25.4027 37.3931 25.3834 37.5005 25.2873C38.5084 24.3719 39.5202 23.4615 40.532 22.5487C42.6125 20.6716 44.6917 18.7946 46.7734 16.9202C47.3815 16.3727 48.1979 16.3073 48.8216 16.7445C49.5319 17.2432 49.603 18.1664 48.9574 18.7613C48.0893 19.5613 47.2069 20.346 46.3296 21.1371C44.2362 23.0256 42.1415 24.9142 40.0468 26.8028C39.6936 27.122 39.3391 27.44 38.9859 27.7592C38.8435 27.8887 38.7077 28.0221 38.5809 28.1695C38.2639 28.5388 37.8486 28.7041 37.5536 28.6977Z" fill="white"/>
<path d="M45.9351 59.8174C46.0826 56.0275 47.5757 52.7824 50.0663 49.9464C51.1014 48.7668 52.2568 47.7065 53.5493 46.8167C55.2494 45.6449 56.4035 43.9922 57.6469 42.4139C59.554 39.9945 61.4417 37.5598 63.345 35.1366C64.2325 34.007 65.8873 33.7865 67.1165 34.6186C68.3689 35.4674 68.7933 37.088 68.0299 38.3393C66.0594 41.5651 64.0617 44.7756 62.0744 47.9911C61.782 48.463 61.4831 48.9322 61.2011 49.4092C60.8569 49.99 60.9177 50.4105 61.3809 50.6836C61.9256 51.0054 62.2698 50.6964 62.5674 50.2849C64.4926 47.6103 66.3415 44.8846 68.0338 42.06C69.0106 40.4305 69.9409 38.7752 70.7133 37.0367C71.2102 35.9199 71.3978 34.7519 71.4469 33.5544C71.5776 30.353 71.9606 27.1784 72.4911 24.0206C72.6256 23.2218 72.7964 22.432 73.0513 21.6589C73.5365 20.1934 74.5534 19.4562 75.7968 19.696C77.1282 19.9524 78.1322 21.3499 77.9873 22.7615C77.5331 27.1759 77.1049 31.5928 76.6054 36.002C76.3247 38.4791 76.1901 40.9728 75.7476 43.4306C75.3815 45.4628 74.3749 47.1757 73.0565 48.736C70.3342 51.9593 67.6133 55.1864 64.8963 58.4135C63.7098 59.8226 62.5389 61.2432 61.3447 62.6458C61.0795 62.9574 60.9475 63.2715 60.9384 63.683C60.9048 65.219 60.8194 66.755 60.7935 68.291C60.7857 68.7577 60.6033 68.859 60.1764 68.8603C59.1076 68.8628 58.0519 68.7038 56.9651 68.8256C55.56 68.9833 54.1342 69.0103 52.7109 68.9936C50.7728 68.9705 48.8385 68.7551 46.8978 68.8577C46.5342 68.8769 46.4022 68.75 46.3867 68.3948C46.3013 66.5396 46.1693 64.6869 46.1124 62.8304C46.0788 61.8291 45.842 60.838 45.9351 59.8174Z" fill="white"/>
<path d="M26.2775 68.7295C24.7689 68.7295 23.2357 68.5666 21.7569 68.7756C20.3298 68.9782 18.9959 68.4192 17.6076 68.5936C17.3035 68.632 17.178 68.482 17.1741 68.1897C17.1677 67.7204 17.1483 67.2499 17.1314 66.7806C17.09 65.6716 17.0409 64.5626 17.0072 63.4535C16.9995 63.2035 16.9167 63.0125 16.7562 62.8202C13.3974 58.8187 10.0348 54.8184 6.6941 50.8003C5.66809 49.5669 4.53081 48.4219 3.65618 47.0654C2.47361 45.2307 2.09323 43.1678 1.87974 41.051C1.55628 37.8457 1.21213 34.643 0.883492 31.4376C0.589791 28.5721 0.303854 25.7066 0.0192112 22.841C-0.0894707 21.741 0.232694 20.8076 1.17978 20.1627C2.60041 19.1959 4.1763 19.6934 4.79345 21.2948C5.37438 22.8038 5.54258 24.4014 5.78453 25.9797C6.22443 28.8503 6.42498 31.7441 6.60482 34.6417C6.71221 36.3597 7.58943 37.8419 8.39031 39.3291C10.4397 43.1357 12.8372 46.7231 15.3654 50.2297C15.6862 50.6746 16.0175 51.0003 16.5854 50.7028C17.0758 50.4464 17.1107 49.963 16.7122 49.3181C14.4791 45.6987 12.2343 42.087 10.0115 38.4611C9.06698 36.9213 9.68544 35.0802 11.3519 34.3494C12.594 33.8044 13.8956 34.2045 14.7767 35.3353C17.2531 38.5098 19.7489 41.6677 22.2369 44.832C23.0701 45.891 24.1932 46.6257 25.2386 47.4437C28.7307 50.1759 31.0401 53.6466 31.9096 57.9943C32.1528 59.2136 32.0092 60.4611 31.9394 61.6958C31.8164 63.8484 31.6702 66.0011 31.5719 68.1551C31.5499 68.632 31.4205 68.7564 30.9341 68.7436C29.3827 68.7064 27.8301 68.7295 26.2775 68.7295Z" fill="white"/>
<path d="M59.0905 16.5855C59.0698 19.2972 59.0568 22.0102 59.0245 24.7219C58.9792 28.5272 57.6815 31.8389 55.4043 34.8365C52.2966 38.9265 48.2533 41.8087 43.5774 43.8806C42.6575 44.2884 41.7259 44.6768 40.8177 45.1089C39.6869 45.6474 38.569 45.7102 37.3903 45.2435C32.7131 43.396 28.3801 41.0087 24.7923 37.4393C22.5785 35.2366 20.7723 32.7633 19.8097 29.7696C19.2521 28.0374 18.9196 26.2591 18.9234 24.427C18.9325 19.6626 18.9467 14.8983 18.9157 10.1352C18.9014 7.90299 19.9533 6.58753 22.2007 6.45676C27.5132 6.14776 32.1154 4.02329 36.4264 1.11543C36.6929 0.935935 36.9711 0.773106 37.2376 0.59489C38.3736 -0.162844 39.5355 -0.210283 40.6844 0.533349C42.5385 1.73213 44.3692 2.96169 46.3708 3.922C49.049 5.20669 51.8398 6.0734 54.8066 6.35931C55.557 6.43111 56.3113 6.51317 57.0242 6.74652C58.3219 7.1709 59.084 8.41969 59.0892 10.0493C59.0944 12.2263 59.0905 14.4059 59.0905 16.5855ZM54.2658 19.1254C54.2658 16.4624 54.2515 14.1123 54.2774 11.7635C54.2839 11.2352 54.1053 11.048 53.5865 11.0237C53.0729 10.9993 52.5631 10.8891 52.0546 10.7967C47.4382 9.96208 43.3018 8.00812 39.4268 5.45414C39.0982 5.23746 38.8653 5.17463 38.5211 5.4349C38.0424 5.79518 37.5158 6.09263 36.9996 6.40291C33.0327 8.78894 28.8187 10.5108 24.1686 11.0314C23.6511 11.0891 23.6886 11.3916 23.6886 11.7468C23.6925 15.9534 23.6744 20.1614 23.7003 24.368C23.7093 25.8873 23.9112 27.3913 24.5218 28.8093C25.6643 31.4633 27.5158 33.5801 29.6907 35.4404C32.1995 37.5854 35.1015 39.065 38.1304 40.3407C38.7592 40.6048 39.278 40.6612 39.8822 40.3292C40.445 40.0202 41.0609 39.8073 41.6496 39.5432C45.6411 37.7521 49.1163 35.3032 51.7415 31.771C53.1246 29.9119 54.0639 27.8823 54.192 25.5386C54.3162 23.2962 54.2425 21.0537 54.2658 19.1254Z" fill="white"/>
<path d="M7.42285 21.9384C8.29231 22.2294 8.79949 22.8333 9.0272 23.6064C9.55121 25.386 9.89148 27.2105 10.2046 29.0375C10.3275 29.7504 10.422 30.4696 10.5695 31.1774C10.6445 31.5402 10.5565 31.703 10.2007 31.8479C9.71552 32.0466 9.27174 32.3428 8.77103 32.6185C8.6287 29.0144 8.12152 25.4911 7.42285 21.9384Z" fill="white"/>
<path d="M69.171 32.6569C68.6082 32.3185 68.1437 31.9351 67.5641 31.762C67.3739 31.7043 67.3506 31.5543 67.3804 31.3505C67.7582 28.7811 68.2382 26.2297 68.898 23.7167C69.1154 22.8872 69.6601 22.2628 70.5658 21.9153C69.8089 25.4694 69.3806 29.0016 69.171 32.6569Z" fill="white"/>
<path d="M66.7257 24.6667C66.2858 26.5207 65.7061 28.2323 65.4137 30.0132C65.3995 30.0965 65.3697 30.1786 65.3581 30.2619C65.2028 31.3338 64.9324 31.5659 63.8249 31.6287C63.583 31.6428 63.5739 31.5594 63.627 31.3748C64.116 29.6811 64.5753 27.9798 65.1032 26.2976C65.3387 25.5476 65.8692 24.9911 66.7257 24.6667Z" fill="white"/>
<path d="M14.3343 31.6158C13.8491 31.5389 13.4286 31.4581 13.0042 31.4107C12.7856 31.3863 12.7028 31.2774 12.6872 31.085C12.5152 28.9272 11.7389 26.8989 11.2925 24.7911C12.0028 24.9437 12.6277 25.4809 12.8723 26.2873C13.3872 27.9785 13.8504 29.685 14.3317 31.3863C14.3485 31.4428 14.3343 31.5081 14.3343 31.6158Z" fill="white"/>
</svg>
