<svg width="60" height="68" viewBox="0 0 60 68" fill="none" xmlns="http://www.w3.org/2000/svg">
<path d="M28.1782 44.0465C28.388 46.1071 28.6249 48.4318 28.8588 50.7564C28.8814 50.9812 28.9131 51.209 28.901 51.4323C28.8678 52.0749 28.4136 52.5441 27.8161 52.5803C27.2532 52.615 26.7115 52.1715 26.6406 51.5379C26.4294 49.6658 26.2468 47.7907 26.0567 45.9171C25.9888 45.2427 25.8273 44.5564 25.8907 43.8941C26.0189 42.5364 25.0623 41.7897 24.3742 40.88C24.2022 40.6538 23.923 40.6719 23.6876 40.6145C22.067 40.2299 20.9761 39.2433 20.3906 37.7046C20.2578 37.3576 20.0934 37.1117 19.7599 36.9171C18.0322 35.9124 17.2581 33.811 17.9084 31.8982C18.0382 31.515 18.0533 31.2058 17.8677 30.8287C17.0302 29.127 17.3848 27.3273 18.8289 26.0481C19.194 25.7238 19.3193 25.4221 19.2529 24.9454C18.8711 22.2089 20.8644 19.9461 23.656 19.9642C24.1071 19.9672 24.3908 19.8661 24.6594 19.4875C25.7232 17.997 27.795 17.5324 29.4352 18.427C29.8863 18.6729 30.2077 18.7 30.6695 18.4345C32.3218 17.4841 34.3709 17.9789 35.4603 19.5719C35.6942 19.9144 35.9673 20.0864 36.3582 20.1708C38.018 20.5299 39.1074 21.5587 39.714 23.1155C39.8362 23.4293 39.9675 23.6631 40.2935 23.8426C41.997 24.7794 42.8435 27.0196 42.1902 28.851C42.0423 29.2643 42.0423 29.5841 42.2445 29.9839C43.085 31.6463 42.7334 33.4701 41.3059 34.692C40.8819 35.0556 40.7839 35.395 40.8472 35.923C41.1701 38.6112 39.2085 40.8152 36.4924 40.8212C35.9945 40.8227 35.7304 41.0611 35.3562 41.3462C34.3573 42.1095 34.3241 43.1504 34.226 44.2184C34.0178 46.4692 33.793 48.7184 33.5742 50.9692C33.5651 51.0687 33.5576 51.1698 33.5425 51.2693C33.4172 52.1745 32.8997 52.6738 32.2025 52.5652C31.4888 52.4536 31.1523 51.8682 31.2459 50.9495C31.5069 48.4016 31.7574 45.8522 32.0139 43.3028C32.029 43.1534 32.112 42.9392 31.9807 42.8789C31.5522 42.6797 31.0588 42.5998 30.668 42.3524C30.1926 42.0492 29.8079 42.0326 29.3733 42.378C29.2405 42.4836 29.0579 42.5304 28.895 42.5922C28.0862 42.9 28.0862 42.8985 28.1782 44.0465ZM21.726 36.1312C21.8196 35.8642 21.8482 35.7405 21.9026 35.6288C22.0927 35.2396 22.1455 34.6588 22.7249 34.695C23.2395 34.7267 23.321 35.2607 23.4492 35.6499C23.6846 36.3635 23.8808 37.0921 24.2112 37.771C24.3561 38.0681 24.5055 38.4 24.8842 38.406C25.5813 38.4166 25.9571 38.8858 26.3434 39.3489C26.5848 39.6385 26.7885 39.9583 27.045 40.2329C27.5249 40.7473 27.9021 40.7307 28.3593 40.1876C28.5192 39.9976 28.6762 39.7879 28.7667 39.5586C28.9946 38.9823 29.0293 38.3517 28.7954 37.7996C28.563 37.2505 27.9881 37.5854 27.5701 37.5598C26.9002 37.5175 26.2815 37.3878 25.77 36.9171C25.4395 36.6124 25.3052 36.2488 25.4833 35.834C25.6598 35.4237 25.951 35.1204 26.452 35.1295C26.8036 35.1355 27.1567 35.1597 27.5067 35.1386C28.4664 35.0827 28.904 34.68 28.9085 33.7296C28.9221 30.2388 28.9236 26.7481 28.8844 23.2588C28.8738 22.3612 28.7818 21.4501 28.4242 20.6023C28.1903 20.0471 27.8191 19.9777 27.3528 20.3398C27.0088 20.6068 26.7779 20.9689 26.5456 21.3264C25.6025 22.767 25.5949 22.7731 23.9426 22.3235C23.499 22.2028 23.0644 22.1365 22.6374 22.4065C21.5721 23.0808 21.2567 24.3027 21.9146 25.3798C22.2511 25.9304 22.224 26.4071 21.8045 26.8914C21.3548 27.4088 20.8192 27.8206 20.2639 28.2113C19.9379 28.4406 19.8021 28.7046 19.9349 29.1104C20.1945 29.8979 20.4646 30.6823 20.9052 31.3898C21.4906 32.3297 21.9493 32.4775 22.9905 32.0883C24.0754 31.6825 24.6639 31.8937 25.2222 32.8923C25.4516 33.3027 25.3792 33.5863 24.8691 33.6029C24.4451 33.6164 24.0166 33.5848 23.5926 33.538C22.6706 33.4369 21.7562 33.2333 20.8207 33.283C19.9832 33.3283 19.7689 33.7069 20.2533 34.3964C20.6652 34.9817 21.1813 35.4961 21.726 36.1312ZM31.1916 30.5315C31.2896 33.3464 31.2776 36.0075 31.1855 38.67C31.1719 39.0502 31.181 39.4228 31.356 39.7728C31.8027 40.6658 32.6145 40.7805 33.295 40.0473C33.5742 39.7456 33.7371 39.3806 33.9016 39.014C34.2381 38.2597 34.65 38.0576 35.4558 38.2642C35.6731 38.3201 35.8859 38.4 36.1001 38.4664C37.3993 38.8737 38.6442 37.8569 38.4526 36.5068C38.3726 35.9396 38.1568 35.3935 38.0225 34.8338C37.8067 33.9362 38.0059 33.5998 38.8901 33.3268C40.1878 32.9255 40.6299 31.8937 40.0279 30.6748C39.3685 29.3382 38.0889 28.7122 36.4472 28.9219C35.6324 29.026 35.0122 28.3184 35.3094 27.5989C35.48 27.1855 35.8391 26.9412 36.2435 26.7662C36.7822 26.5323 37.3556 26.466 37.9305 26.4026C38.1689 26.377 38.3771 26.3076 38.445 26.0436C38.5039 25.8203 38.4224 25.6393 38.2307 25.5277C37.8218 25.2938 37.8263 24.8518 37.7011 24.4837C37.2816 23.2452 36.6026 22.3341 35.1495 22.3296C34.8326 22.328 34.6636 22.1003 34.4705 21.9057C33.9574 21.3897 33.4625 20.8467 32.8137 20.4922C32.1437 20.1271 31.7287 20.2825 31.4526 20.9945C31.2323 21.5632 31.1901 22.1666 31.1553 22.77C31.009 25.41 31.2217 28.0454 31.1916 30.5315Z" fill="white"/>
<path d="M40.292 51.8064C40.2332 52.6723 40.0929 53.9878 39.8152 54.6048C39.5874 55.1086 39.0094 55.1795 38.4889 55.003C37.9713 54.828 37.7781 54.4011 37.7736 53.8791C37.7555 52.2635 37.9819 50.6765 38.3199 49.0986C39.0049 45.899 40.7945 43.2515 42.5434 40.5829C44.0236 38.3246 45.3364 36.0105 45.9007 33.3163C47.7628 24.4445 41.5565 15.4838 32.5753 14.1337C22.7733 12.6598 14.0622 20.0034 13.8721 29.8979C13.7982 33.7779 15.1955 37.157 17.3517 40.2948C18.9029 42.553 20.4103 44.8415 21.3202 47.4603C22.0354 49.521 22.3795 51.6435 22.4082 53.8188C22.4187 54.5866 21.9902 55.0679 21.3293 55.1131C20.6744 55.1569 20.1221 54.6953 20.1251 53.9531C20.1342 49.4169 18.2571 45.5958 15.7236 41.9919C14.0079 39.5556 12.6227 36.9579 11.9618 34.0026C9.58373 23.375 17.3653 12.6915 28.2281 11.7215C38.2157 10.8285 46.9902 17.7481 48.3422 27.614C48.9986 32.4081 47.8337 36.7844 45.1614 40.7865C43.5438 43.2108 41.9066 45.6244 40.9545 48.4152C40.9213 48.5072 40.2181 50.577 40.292 51.8064Z" fill="white"/>
<path d="M29.4354 67.4363C27.851 67.3956 25.9497 66.67 24.5856 64.8295C24.05 64.107 23.7648 63.2833 23.712 62.3857C23.6622 61.5349 24.0817 61.022 24.9357 61.0145C28.3233 60.9858 31.7108 60.9737 35.0984 60.9903C36.0203 60.9948 36.4157 61.4715 36.3599 62.3902C36.2542 64.0994 35.367 65.356 33.9863 66.2883C32.8093 67.0818 31.4935 67.4438 29.4354 67.4363ZM26.3918 63.3527C27.4481 64.7662 29.1864 65.4073 30.8915 65.0709C31.9975 64.8522 32.9964 64.4434 33.6589 63.3527C31.1887 63.3527 28.8454 63.3527 26.3918 63.3527Z" fill="white"/>
<path d="M30.0569 59.1484C27.4705 59.1484 24.8857 59.1499 22.2994 59.1469C21.9252 59.1469 21.5329 59.1801 21.2356 58.8799C20.9188 58.5601 20.7332 58.1905 20.8675 57.7259C20.9957 57.2778 21.2839 56.9731 21.7426 56.8886C22.0354 56.8358 22.3417 56.8539 22.642 56.8539C27.638 56.8464 32.6326 56.8403 37.6287 56.8343C37.8037 56.8343 37.9818 56.8253 38.1553 56.8419C38.7875 56.8992 39.2432 57.3683 39.2568 57.9672C39.2704 58.5842 38.7875 59.1016 38.1131 59.1137C36.8335 59.1394 35.5524 59.1273 34.2728 59.1288C32.8665 59.1303 31.4617 59.1288 30.0554 59.1288C30.0569 59.1363 30.0569 59.1424 30.0569 59.1484Z" fill="white"/>
<path d="M59.5527 46.3816C59.5316 47.3878 58.5402 47.8359 57.5896 47.2898C56.0022 46.3786 54.4299 45.4403 52.85 44.5156C52.2646 44.1731 51.667 43.8503 51.0891 43.4958C50.4629 43.1111 50.2697 42.4504 50.5927 41.8862C50.9246 41.3039 51.5735 41.1259 52.2223 41.4955C54.4495 42.7627 56.6661 44.0479 58.8843 45.3272C59.3068 45.5716 59.5452 45.9336 59.5527 46.3816Z" fill="white"/>
<path d="M8.4286 18.6864C8.16001 18.7075 7.9397 18.5929 7.7194 18.4662C5.57068 17.2246 3.41894 15.9891 1.27474 14.7401C0.490097 14.283 0.269793 13.6253 0.654571 13.0052C1.02275 12.4124 1.65499 12.3098 2.4336 12.7548C4.58685 13.9873 6.73406 15.2318 8.88429 16.4719C9.41695 16.7796 9.71119 17.2141 9.53615 17.8416C9.38224 18.3817 8.99143 18.6608 8.4286 18.6864Z" fill="white"/>
<path d="M47.5373 1.70327C47.5297 1.89787 47.4317 2.14829 47.2898 2.39117C46.0419 4.53782 44.8031 6.6905 43.5537 8.83564C43.1387 9.54918 42.5397 9.75887 41.924 9.43453C41.3084 9.10869 41.15 8.42532 41.5694 7.69066C42.8113 5.51233 44.0728 3.34305 45.3252 1.17076C45.6315 0.639753 46.0706 0.33352 46.6908 0.505493C47.2234 0.65333 47.5252 1.03952 47.5373 1.70327Z" fill="white"/>
<path d="M3.12207 28.8343C3.72262 28.8343 4.32318 28.8193 4.92373 28.8374C5.73252 28.8615 6.23198 29.3005 6.24858 29.9703C6.26518 30.6416 5.77025 31.1334 4.97504 31.15C3.72413 31.1756 2.47172 31.1771 1.22232 31.1469C0.485962 31.1303 -0.00745934 30.6205 8.53289e-05 29.9839C0.00763 29.3488 0.504069 28.8721 1.24646 28.8389C1.86965 28.8132 2.49586 28.8343 3.12207 28.8343Z" fill="white"/>
<path d="M56.8631 31.1575C56.2354 31.1575 55.6061 31.1817 54.9799 31.1515C54.2345 31.1168 53.7743 30.6386 53.7864 29.9688C53.7969 29.3382 54.2481 28.86 54.9573 28.8434C56.2369 28.8133 57.518 28.8133 58.7975 28.8434C59.5429 28.8615 60.0107 29.3639 59.9971 30.0216C59.9836 30.6461 59.5279 31.0866 58.8217 31.156C58.7719 31.1605 58.7221 31.159 58.6708 31.159C58.0687 31.159 57.4651 31.159 56.8631 31.159C56.8631 31.1605 56.8631 31.159 56.8631 31.1575Z" fill="white"/>
<path d="M8.43511 41.2979C8.98738 41.3476 9.35707 41.6071 9.52305 42.1125C9.69205 42.6254 9.55021 43.0915 9.10508 43.3646C7.93264 44.0826 6.7436 44.778 5.53494 45.4328C4.96306 45.742 4.32176 45.5187 4.03506 44.9953C3.73026 44.4356 3.79816 43.8578 4.32327 43.526C5.52589 42.7642 6.77981 42.0808 8.02015 41.3763C8.14238 41.3054 8.31138 41.319 8.43511 41.2979Z" fill="white"/>
<path d="M18.6854 8.45551C18.6809 8.92466 18.4485 9.28671 17.9852 9.4783C17.4888 9.68497 16.9788 9.61105 16.7011 9.16452C15.9316 7.93054 15.1967 6.67091 14.5132 5.38563C14.2476 4.88782 14.48 4.38547 14.9478 4.07471C15.414 3.76546 15.9889 3.72926 16.3224 4.17579C17.2534 5.41882 17.9913 6.78857 18.6582 8.19302C18.6899 8.2594 18.6763 8.34388 18.6854 8.45551Z" fill="white"/>
<path d="M51.6254 18.6894C51.0309 18.6683 50.6658 18.3922 50.5043 17.8899C50.3413 17.3875 50.459 16.9003 50.9102 16.6242C52.0872 15.9046 53.2792 15.2047 54.4984 14.559C55.0371 14.2739 55.5864 14.4052 55.9425 14.9603C56.282 15.4883 56.193 16.1656 55.6603 16.4945C54.4637 17.2307 53.234 17.9125 52.0117 18.6064C51.888 18.6758 51.722 18.6698 51.6254 18.6894Z" fill="white"/>
<path d="M31.1684 3.17412C31.1684 3.77754 31.185 4.37944 31.1654 4.98286C31.1412 5.73713 30.684 6.22439 30.0322 6.23193C29.3577 6.23796 28.8854 5.78088 28.8703 5.02812C28.8461 3.77301 28.8461 2.5164 28.8658 1.2613C28.8778 0.51306 29.3531 0.00920855 29.9854 0.000157319C30.6553 -0.0104024 31.1442 0.511552 31.1639 1.29147C31.1805 1.91751 31.1684 2.54506 31.1684 3.17412Z" fill="white"/>
<path d="M27.6917 31.0972C27.6343 31.7685 27.2993 32.1607 26.7833 32.3794C26.2672 32.5997 25.8387 32.301 25.641 31.9012C25.0118 30.6311 24.2468 30.1076 22.8752 30.978C22.4149 31.2707 21.8234 31.0459 21.5443 30.4802C21.2274 29.8406 21.4432 29.2628 21.9713 28.8842C22.5583 28.4633 23.2237 28.1254 23.9918 28.1857C25.5324 28.3079 26.6747 29.0788 27.4548 30.3927C27.5936 30.622 27.6328 30.9101 27.6917 31.0972Z" fill="white"/>
<path d="M25.0926 26.4358C23.8206 26.4222 22.6376 25.5473 22.3418 24.4536C22.2211 24.007 22.1562 23.5258 22.5893 23.2151C23.0495 22.8847 23.549 23.0024 23.9956 23.2875C24.1827 23.4066 24.3245 23.5922 24.489 23.7461C24.9704 24.1941 25.4502 24.2363 25.9346 23.7461C26.0749 23.6043 26.2228 23.4655 26.3888 23.3569C27.0255 22.9405 27.7212 23.0099 28.1557 23.5198C28.5556 23.9874 28.4741 24.6286 27.8902 25.1807C27.0829 25.9425 26.1156 26.3739 25.0926 26.4358Z" fill="white"/>
<path d="M34.9345 34.1188C36.2186 34.2228 37.2975 34.7538 37.9222 35.9954C38.147 36.4419 38.2285 36.9246 37.8136 37.3138C37.4122 37.691 36.9339 37.6216 36.4827 37.3983C36.193 37.255 35.9259 37.0634 35.6558 36.8824C34.8078 36.3137 34.5663 36.3182 33.839 37.0272C33.4965 37.3591 33.1298 37.5537 32.6424 37.5507C31.7145 37.5446 31.3734 37.0483 31.719 36.1764C32.1656 35.054 33.6353 34.0976 34.9345 34.1188Z" fill="white"/>
<path d="M35.2124 32.8712C33.3881 32.8636 32.0286 31.4441 32.092 29.833C32.1131 29.2975 32.3062 28.8343 32.8419 28.6337C33.3399 28.4466 33.6356 28.8102 33.9193 29.1315C34.1517 29.394 34.3599 29.6791 34.5893 29.9446C35.0359 30.462 35.5308 30.7577 36.231 30.373C36.569 30.1875 36.9613 30.2162 37.34 30.2644C37.7173 30.3112 38.1352 30.3353 38.2771 30.7607C38.4295 31.2133 38.1126 31.5165 37.8063 31.7865C37.0051 32.4956 36.0559 32.841 35.2124 32.8712Z" fill="white"/>
<path d="M34.8097 23.3825C34.9726 23.3825 34.9983 23.3795 35.0224 23.3825C35.5671 23.4775 36.2522 23.3418 36.4589 24.0629C36.5947 24.538 35.7603 25.4145 35.0933 25.4417C34.5592 25.4643 34.2257 25.6845 33.8787 26.0466C33.3551 26.5927 32.4633 26.5565 31.997 26.0315C31.5081 25.4824 31.6047 24.6874 32.255 24.1896C33.0457 23.5862 33.9873 23.4444 34.8097 23.3825Z" fill="white"/>
</svg>
